<?xml version="1.0" encoding="UTF-8" standalone="no"?>
<!DOCTYPE svg PUBLIC "-//W3C//DTD SVG 1.1//EN" "http://www.w3.org/Graphics/SVG/1.1/DTD/svg11.dtd">
<svg xmlns="http://www.w3.org/2000/svg" version="1.1" viewBox="0 0 455 502" width="455.0pt" height="502.0pt">
<path d="M 245.25 34.69 C 233.90 35.20 222.14 35.17 210.78 34.71 C 220.18 33.53 235.83 33.57 245.25 34.69 Z" fill="#97ad99" />
<path d="M 208.23 35.29 C 205.43 36.17 202.64 35.99 199.75 35.85 C 202.56 34.60 205.27 35.08 208.23 35.29 Z" fill="#98ac9b" />
<path d="M 208.23 35.29 C 209.08 35.09 209.93 34.90 210.78 34.71 C 222.14 35.17 233.90 35.20 245.25 34.69 C 246.16 34.88 247.07 35.08 247.98 35.28 C 250.01 36.61 251.83 36.37 254.07 35.76 L 254.84 36.11 C 256.20 37.51 257.38 37.37 259.10 36.74 C 269.19 38.97 279.57 41.49 288.81 46.22 C 289.79 46.63 290.78 46.97 291.78 47.25 C 293.11 47.64 294.46 47.93 295.82 48.21 C 307.97 55.90 319.43 64.19 329.74 74.26 C 337.73 83.05 343.41 93.38 347.26 104.58 C 346.08 107.27 344.73 109.22 342.51 111.14 C 335.63 111.30 328.90 116.51 322.88 119.46 C 318.93 113.75 314.42 105.96 307.96 102.96 C 304.57 105.17 304.10 109.49 299.05 108.96 C 290.36 107.03 282.01 102.59 273.86 99.03 C 267.28 95.26 275.77 98.78 276.93 95.49 C 278.58 95.21 280.27 95.32 281.92 94.86 C 279.76 92.21 275.16 93.76 272.39 90.65 C 272.13 93.29 265.44 93.73 266.12 90.40 C 268.32 89.83 270.31 90.19 271.99 88.49 C 268.80 88.44 265.02 85.05 262.39 87.26 C 253.94 90.19 244.44 87.34 236.26 90.12 C 238.92 93.57 238.04 99.28 243.76 98.38 C 242.89 99.65 241.96 100.87 241.04 102.10 C 236.90 104.21 232.75 105.94 228.01 105.95 C 222.11 105.65 218.56 109.33 212.72 111.10 C 209.04 111.31 206.40 109.58 203.14 108.29 C 195.37 118.59 190.81 130.98 191.00 144.00 C 191.29 150.30 190.50 156.30 186.15 161.17 C 177.55 170.07 169.69 179.13 166.34 191.36 C 162.85 201.00 164.27 210.01 164.00 220.00 C 164.07 223.88 163.54 228.29 164.69 232.00 C 164.47 234.78 166.31 239.95 163.02 241.12 C 156.82 235.75 150.68 231.23 145.22 225.00 C 140.74 219.83 136.18 216.52 129.61 214.45 C 122.54 212.16 115.29 205.24 107.66 209.67 C 97.27 215.40 94.06 228.80 96.39 239.80 C 96.18 241.22 95.95 242.63 95.69 244.04 C 92.35 236.70 92.02 228.59 88.89 221.11 C 82.71 205.49 79.24 189.37 76.80 172.83 L 76.68 172.15 C 76.79 155.83 77.66 140.08 83.70 124.68 C 89.13 109.79 98.92 96.18 111.25 86.25 C 117.34 79.84 128.23 78.74 131.60 70.61 C 137.67 60.02 147.24 53.14 158.20 48.22 C 159.19 47.91 160.17 47.58 161.14 47.22 C 171.56 42.49 182.70 38.91 193.93 36.70 C 195.86 37.37 197.42 37.70 198.98 36.09 L 199.75 35.85 C 202.64 35.99 205.43 36.17 208.23 35.29 Z" fill="#33623a" />
<path d="M 247.98 35.28 C 250.22 34.64 252.05 34.36 254.07 35.76 C 251.83 36.37 250.01 36.61 247.98 35.28 Z" fill="#93a999" />
<path d="M 198.98 36.09 C 197.42 37.70 195.86 37.37 193.93 36.70 C 195.57 35.51 197.09 35.63 198.98 36.09 Z" fill="#879d8e" />
<path d="M 254.84 36.11 C 256.54 35.62 257.69 35.55 259.10 36.74 C 257.38 37.37 256.20 37.51 254.84 36.11 Z" fill="#8aa28d" />
<path d="M 157.22 46.70 C 150.09 47.19 142.91 47.12 135.78 46.74 C 141.92 45.46 151.01 45.63 157.22 46.70 Z" fill="#cfe7c9" />
<path d="M 288.81 46.22 C 299.23 46.52 311.29 44.30 321.18 47.82 C 319.53 47.80 317.87 47.80 316.22 47.74 C 308.37 46.20 299.78 47.17 291.78 47.25 C 290.78 46.97 289.79 46.63 288.81 46.22 Z" fill="#c9e0c0" />
<path d="M 135.78 46.74 C 142.91 47.12 150.09 47.19 157.22 46.70 C 158.52 46.89 159.83 47.07 161.14 47.22 C 160.17 47.58 159.19 47.91 158.20 48.22 C 149.71 47.66 141.24 48.39 132.76 47.70 C 133.76 47.37 134.77 47.05 135.78 46.74 Z" fill="#91b289" />
<path d="M 291.78 47.25 C 299.78 47.17 308.37 46.20 316.22 47.74 C 309.42 48.26 302.63 47.77 295.82 48.21 C 294.46 47.93 293.11 47.64 291.78 47.25 Z" fill="#819f73" />
<path d="M 132.76 47.70 C 141.24 48.39 149.71 47.66 158.20 48.22 C 147.24 53.14 137.67 60.02 131.60 70.61 C 128.23 78.74 117.34 79.84 111.25 86.25 C 98.92 96.18 89.13 109.79 83.70 124.68 C 77.66 140.08 76.79 155.83 76.68 172.15 C 74.12 169.41 75.18 166.43 74.97 163.00 C 75.69 147.78 73.67 132.43 74.57 117.33 C 74.47 112.39 79.89 113.10 83.00 114.57 C 82.52 110.32 78.76 108.39 81.44 104.51 C 82.83 101.50 81.65 99.93 78.39 100.31 C 76.20 100.68 76.14 96.15 73.81 95.42 C 83.58 70.54 106.51 52.42 132.76 47.70 Z" fill="#578f3f" />
<path d="M 295.82 48.21 C 302.63 47.77 309.42 48.26 316.22 47.74 C 317.87 47.80 319.53 47.80 321.18 47.82 C 334.88 51.49 347.78 56.95 358.46 66.51 C 370.09 77.08 378.56 90.63 382.25 106.00 C 381.75 108.24 380.99 110.20 383.12 111.84 C 382.99 119.16 382.83 126.51 383.19 133.82 C 384.05 141.00 372.97 143.09 369.90 149.00 C 371.83 152.09 374.79 153.48 377.18 156.01 C 371.97 161.65 362.62 166.21 357.99 171.87 C 366.41 169.88 374.26 165.76 382.76 163.77 C 383.32 172.22 382.74 180.71 383.14 189.18 C 379.37 193.30 373.86 192.20 369.84 194.97 C 371.78 197.85 375.04 199.82 376.76 202.78 C 371.78 207.94 365.20 211.19 359.99 215.93 C 366.79 214.91 373.39 211.82 379.93 209.70 C 382.64 210.10 381.71 211.93 382.03 213.98 C 381.97 258.96 382.02 304.01 382.00 349.00 C 381.84 365.15 382.53 381.15 381.22 397.23 C 375.76 418.76 360.91 435.03 341.98 445.94 C 337.31 447.67 332.61 449.25 328.05 451.26 C 326.11 450.66 324.50 450.17 323.12 452.05 C 299.02 454.09 274.49 452.40 250.28 453.10 C 254.14 439.79 261.25 421.17 259.03 407.61 C 260.27 402.33 262.90 397.85 265.70 393.27 C 264.07 392.95 262.42 392.69 260.78 392.36 C 262.95 391.92 266.43 392.71 267.36 390.18 C 281.18 392.27 295.77 394.31 308.68 387.67 C 317.01 384.62 319.51 374.09 321.39 366.38 C 322.92 356.42 326.93 347.51 330.38 338.16 C 335.62 323.14 341.53 308.47 344.79 292.83 C 349.11 277.72 353.82 263.96 351.38 247.84 C 350.32 237.32 345.86 227.31 344.25 216.81 C 343.97 212.73 339.74 211.45 337.06 209.00 C 336.71 208.29 336.35 207.58 335.99 206.87 C 339.46 207.33 341.44 209.73 344.56 210.94 C 344.35 203.46 347.16 196.60 347.01 189.20 C 347.53 186.16 349.03 184.36 346.18 182.02 C 350.55 181.38 345.60 169.96 342.02 169.17 C 344.88 168.88 343.47 167.08 343.34 165.17 C 349.14 150.79 350.16 133.40 350.04 118.00 C 350.25 113.27 348.90 108.94 347.26 104.58 C 343.41 93.38 337.73 83.05 329.74 74.26 C 319.43 64.19 307.97 55.90 295.82 48.21 Z" fill="#578f3e" />
<path d="M 271.99 88.49 C 270.31 90.19 268.32 89.83 266.12 90.40 C 265.44 93.73 272.13 93.29 272.39 90.65 C 275.16 93.76 279.76 92.21 281.92 94.86 C 280.27 95.32 278.58 95.21 276.93 95.49 C 275.77 98.78 267.28 95.26 273.86 99.03 C 272.31 99.04 270.76 99.12 269.22 99.26 C 265.08 99.18 260.05 100.94 256.52 98.55 C 253.22 96.45 249.37 97.23 246.14 99.01 C 244.49 100.14 242.88 101.28 241.04 102.10 C 241.96 100.87 242.89 99.65 243.76 98.38 C 238.04 99.28 238.92 93.57 236.26 90.12 C 244.44 87.34 253.94 90.19 262.39 87.26 C 265.02 85.05 268.80 88.44 271.99 88.49 Z" fill="#3c6c3d" />
<path d="M 73.81 95.42 C 76.14 96.15 76.20 100.68 78.39 100.31 C 81.65 99.93 82.83 101.50 81.44 104.51 C 78.76 108.39 82.52 110.32 83.00 114.57 C 79.89 113.10 74.47 112.39 74.57 117.33 C 73.67 132.43 75.69 147.78 74.97 163.00 C 75.18 166.43 74.12 169.41 76.68 172.15 L 76.80 172.83 C 75.13 174.61 74.91 175.51 74.97 177.97 C 75.14 190.95 74.76 203.97 75.16 216.94 C 78.00 215.85 78.58 213.47 80.23 211.22 C 85.67 212.71 83.60 215.44 82.70 219.56 C 79.50 217.93 77.79 220.59 74.95 218.43 C 75.43 221.46 73.42 224.06 77.79 223.48 C 78.45 226.50 77.32 225.07 75.21 225.41 C 74.80 233.67 74.93 242.14 75.13 250.42 C 81.95 250.03 73.68 251.95 74.97 254.98 C 77.00 259.72 74.11 264.69 75.22 269.80 C 78.03 271.34 84.57 268.11 80.97 273.70 C 75.03 269.29 79.94 279.12 77.26 280.42 C 70.39 280.96 79.99 283.07 81.68 282.61 C 85.62 282.85 83.26 284.71 80.99 284.90 C 74.62 283.45 80.91 296.79 76.14 295.83 C 76.08 292.92 78.53 288.75 75.20 286.97 C 74.80 296.83 74.99 306.80 75.09 316.67 C 78.55 315.25 78.19 314.12 77.80 318.56 C 72.75 316.68 75.75 326.75 75.02 329.49 C 76.59 328.40 79.16 328.26 80.02 330.25 C 77.96 330.78 77.92 330.28 78.22 332.57 C 81.12 333.30 83.48 332.76 84.97 335.88 C 81.17 337.29 78.43 335.40 75.00 338.87 C 78.41 341.71 78.30 342.61 77.86 347.00 C 76.23 346.60 75.94 345.31 75.04 344.10 C 75.30 347.13 73.51 354.82 78.87 353.40 C 75.39 356.26 74.99 357.72 74.14 362.11 C 72.54 362.61 70.90 362.93 69.26 363.26 C 68.83 332.96 68.83 302.53 69.26 272.23 C 71.17 260.97 68.73 249.34 71.38 237.97 C 69.10 221.60 70.27 204.57 70.17 188.02 C 72.11 177.29 68.72 167.52 71.33 157.01 C 69.39 145.48 71.68 133.44 70.13 122.07 C 70.57 120.13 72.69 117.48 71.30 115.63 C 69.48 112.85 71.37 109.01 70.72 105.75 C 71.30 102.17 72.50 98.79 73.81 95.42 Z" fill="#52873a" />
<path d="M 256.52 98.55 C 260.05 100.94 265.08 99.18 269.22 99.26 C 263.43 104.15 259.09 104.18 252.67 100.33 C 250.54 99.10 248.57 98.91 246.14 99.01 C 249.37 97.23 253.22 96.45 256.52 98.55 Z" fill="#59863f" />
<path d="M 246.14 99.01 C 248.57 98.91 250.54 99.10 252.67 100.33 C 259.09 104.18 263.43 104.15 269.22 99.26 C 270.76 99.12 272.31 99.04 273.86 99.03 C 282.01 102.59 290.36 107.03 299.05 108.96 C 304.10 109.49 304.57 105.17 307.96 102.96 C 314.42 105.96 318.93 113.75 322.88 119.46 C 332.49 133.71 336.96 149.51 343.34 165.17 C 343.47 167.08 344.88 168.88 342.02 169.17 C 332.74 166.08 322.58 168.81 316.12 176.18 C 308.69 180.83 298.05 179.00 289.60 181.61 C 286.85 182.44 286.73 180.86 285.34 179.05 C 285.01 178.43 284.66 177.80 284.31 177.18 L 283.53 175.86 C 279.80 169.09 270.22 166.26 263.18 164.80 C 257.47 163.13 250.93 164.38 245.00 163.97 C 241.96 164.27 237.91 162.91 235.98 165.93 C 233.46 167.88 230.81 169.67 228.14 171.41 C 225.69 170.73 225.17 171.44 225.44 168.68 C 228.27 153.59 219.62 142.54 216.21 126.83 C 215.63 121.68 211.71 116.15 212.72 111.10 C 218.56 109.33 222.11 105.65 228.01 105.95 C 232.75 105.94 236.90 104.21 241.04 102.10 C 242.88 101.28 244.49 100.14 246.14 99.01 Z" fill="#a7c964" />
<path d="M 347.26 104.58 C 348.90 108.94 350.25 113.27 350.04 118.00 C 350.16 133.40 349.14 150.79 343.34 165.17 C 336.96 149.51 332.49 133.71 322.88 119.46 C 328.90 116.51 335.63 111.30 342.51 111.14 C 344.73 109.22 346.08 107.27 347.26 104.58 Z" fill="#2f5a34" />
<path d="M 70.72 105.75 C 71.37 109.01 69.48 112.85 71.30 115.63 C 72.69 117.48 70.57 120.13 70.13 122.07 C 71.68 133.44 69.39 145.48 71.33 157.01 C 68.72 167.52 72.11 177.29 70.17 188.02 C 70.27 204.57 69.10 221.60 71.38 237.97 C 68.73 249.34 71.17 260.97 69.26 272.23 C 68.42 220.17 69.65 167.79 68.64 115.76 C 69.15 112.39 69.87 109.06 70.72 105.75 Z" fill="#5c8b4a" />
<path d="M 382.25 106.00 C 383.44 107.89 383.34 109.71 383.12 111.84 C 380.99 110.20 381.75 108.24 382.25 106.00 Z" fill="#a7c599" />
<path d="M 203.14 108.29 C 206.40 109.58 209.04 111.31 212.72 111.10 C 211.71 116.15 215.63 121.68 216.21 126.83 C 219.62 142.54 228.27 153.59 225.44 168.68 C 225.17 171.44 225.69 170.73 228.14 171.41 C 224.03 174.42 219.13 178.15 217.10 182.96 C 221.71 181.25 226.03 179.94 230.85 178.93 C 236.51 178.14 242.07 177.62 247.80 178.19 C 252.97 180.41 260.02 180.06 263.76 184.24 C 266.99 187.40 271.07 188.60 272.70 193.19 C 273.79 196.69 275.19 199.94 277.32 202.95 C 276.00 207.54 274.36 207.40 270.14 208.43 C 272.21 211.08 271.93 210.77 274.83 209.37 C 274.57 210.95 274.25 212.51 274.02 214.08 C 267.52 207.16 265.54 205.51 255.79 204.22 C 257.66 203.40 266.57 205.67 262.23 201.96 C 264.70 198.85 268.14 198.93 263.50 195.44 C 255.94 197.46 245.93 202.40 237.63 203.65 C 233.58 204.70 230.80 201.51 226.79 203.52 C 220.58 202.29 218.88 211.73 213.16 208.30 C 211.09 209.24 211.31 210.49 210.78 207.52 C 208.45 210.38 202.32 204.13 204.02 201.14 C 207.27 205.80 215.05 202.07 217.97 198.87 C 218.24 196.74 213.79 194.64 212.27 193.50 C 214.30 190.14 215.78 194.45 218.80 192.96 C 217.41 189.89 212.14 187.22 210.57 191.32 C 208.63 190.63 207.09 190.31 205.02 190.37 C 204.36 186.74 207.58 183.70 206.75 180.34 C 203.34 178.82 201.24 176.97 198.13 180.13 C 195.75 183.94 189.84 176.65 189.98 182.02 C 188.39 184.52 194.07 189.49 189.98 189.00 C 185.88 188.68 190.82 192.04 192.33 191.48 C 195.73 191.18 195.59 193.63 197.37 195.74 C 198.65 196.31 200.63 194.46 201.95 194.11 C 202.79 200.00 195.66 205.21 190.46 205.68 C 189.00 207.40 188.31 209.41 187.71 211.55 C 186.07 210.42 183.36 206.63 185.20 211.15 C 182.26 216.62 180.64 212.54 176.01 212.11 C 176.33 214.73 180.64 215.84 182.48 217.42 C 182.03 221.19 182.54 221.78 184.66 224.74 C 181.77 225.80 178.98 225.41 177.30 228.41 C 174.99 232.21 174.82 227.72 172.19 231.73 C 172.38 229.26 172.15 227.34 170.85 225.20 C 165.22 225.67 169.77 235.41 167.71 239.32 C 165.14 238.09 166.72 234.10 164.69 232.00 C 163.54 228.29 164.07 223.88 164.00 220.00 C 164.27 210.01 162.85 201.00 166.34 191.36 C 169.69 179.13 177.55 170.07 186.15 161.17 C 190.50 156.30 191.29 150.30 191.00 144.00 C 190.81 130.98 195.37 118.59 203.14 108.29 Z" fill="#7fb65d" />
<path d="M 383.12 111.84 C 384.95 118.90 383.77 127.16 383.75 134.46 L 383.19 133.82 C 382.83 126.51 382.99 119.16 383.12 111.84 Z" fill="#b1d49f" />
<path d="M 68.64 115.76 C 69.65 167.79 68.42 220.17 69.26 272.23 C 68.83 302.53 68.83 332.96 69.26 363.26 L 68.05 363.96 C 68.08 360.89 67.93 357.84 67.74 354.78 C 68.35 293.38 67.82 231.47 68.00 170.00 C 68.42 152.04 67.16 133.59 68.64 115.76 Z" fill="#aaca9e" />
<path d="M 390.76 132.91 C 387.87 132.52 385.29 137.87 383.75 134.46 C 385.54 133.73 389.17 130.49 390.76 132.91 Z" fill="#d0e1a8" />
<path d="M 390.76 132.91 C 394.00 136.39 397.59 138.25 400.14 142.04 C 396.74 145.71 391.59 147.59 387.89 151.01 C 389.98 153.90 392.96 155.99 394.94 158.86 C 391.70 160.99 387.65 161.46 384.14 163.20 L 382.76 163.77 C 374.26 165.76 366.41 169.88 357.99 171.87 C 362.62 166.21 371.97 161.65 377.18 156.01 C 374.79 153.48 371.83 152.09 369.90 149.00 C 372.97 143.09 384.05 141.00 383.19 133.82 L 383.75 134.46 C 385.29 137.87 387.87 132.52 390.76 132.91 Z" fill="#a3c35f" />
<path d="M 384.14 163.20 C 383.77 171.89 384.23 180.61 383.85 189.31 L 383.14 189.18 C 382.74 180.71 383.32 172.22 382.76 163.77 L 384.14 163.20 Z" fill="#bbd7a2" />
<path d="M 245.00 163.97 C 250.93 164.38 257.47 163.13 263.18 164.80 C 254.22 165.64 244.73 163.91 235.98 165.93 C 237.91 162.91 241.96 164.27 245.00 163.97 Z" fill="#79a157" />
<path d="M 263.18 164.80 C 270.22 166.26 279.80 169.09 283.53 175.86 C 283.40 179.53 278.57 175.44 276.66 175.25 C 272.86 172.94 271.73 178.68 268.02 175.52 C 264.46 177.75 260.97 176.90 257.00 177.01 C 250.29 176.81 244.30 177.56 237.81 176.29 C 235.27 175.55 232.94 177.74 230.85 178.93 C 226.03 179.94 221.71 181.25 217.10 182.96 C 219.13 178.15 224.03 174.42 228.14 171.41 C 230.81 169.67 233.46 167.88 235.98 165.93 C 244.73 163.91 254.22 165.64 263.18 164.80 Z" fill="#326635" />
<path d="M 342.02 169.17 C 345.60 169.96 350.55 181.38 346.18 182.02 C 335.37 178.04 326.62 181.21 315.25 181.80 C 315.09 180.87 314.97 179.94 314.87 179.00 C 315.27 178.05 315.68 177.11 316.12 176.18 C 322.58 168.81 332.74 166.08 342.02 169.17 Z" fill="#2f5e37" />
<path d="M 76.80 172.83 C 79.24 189.37 82.71 205.49 88.89 221.11 C 92.02 228.59 92.35 236.70 95.69 244.04 C 95.95 242.63 96.18 241.22 96.39 239.80 C 97.45 251.35 101.92 264.65 110.83 272.61 C 110.48 273.94 110.17 274.76 110.96 276.01 C 118.40 287.96 123.43 301.39 130.29 313.68 C 131.54 315.29 131.36 318.29 134.00 317.20 C 133.62 327.43 133.46 337.99 132.07 348.13 C 129.03 358.88 127.79 369.60 122.79 379.72 C 120.68 385.92 116.29 390.84 114.25 396.99 C 115.75 402.85 120.29 408.09 123.76 413.10 C 134.90 428.23 149.13 441.57 165.23 451.31 C 152.70 452.83 139.40 451.97 126.81 451.15 C 114.71 447.53 103.02 441.62 93.97 432.69 L 92.78 431.55 C 98.10 425.83 90.01 425.79 87.89 420.99 C 94.79 413.75 103.85 408.20 110.98 401.04 C 104.50 402.01 98.50 406.11 92.35 408.37 C 88.12 409.98 82.76 414.14 78.18 413.34 C 73.32 406.40 71.08 397.45 69.63 389.21 C 68.03 378.50 80.35 381.26 86.21 376.04 C 83.94 373.00 80.98 371.62 79.22 368.28 C 84.87 364.01 90.70 359.82 96.00 355.13 C 88.53 356.95 81.34 359.47 74.14 362.11 C 74.99 357.72 75.39 356.26 78.87 353.40 C 73.51 354.82 75.30 347.13 75.04 344.10 C 75.94 345.31 76.23 346.60 77.86 347.00 C 78.30 342.61 78.41 341.71 75.00 338.87 C 78.43 335.40 81.17 337.29 84.97 335.88 C 83.48 332.76 81.12 333.30 78.22 332.57 C 77.92 330.28 77.96 330.78 80.02 330.25 C 79.16 328.26 76.59 328.40 75.02 329.49 C 75.75 326.75 72.75 316.68 77.80 318.56 C 78.19 314.12 78.55 315.25 75.09 316.67 C 74.99 306.80 74.80 296.83 75.20 286.97 C 78.53 288.75 76.08 292.92 76.14 295.83 C 80.91 296.79 74.62 283.45 80.99 284.90 C 83.26 284.71 85.62 282.85 81.68 282.61 C 79.99 283.07 70.39 280.96 77.26 280.42 C 79.94 279.12 75.03 269.29 80.97 273.70 C 84.57 268.11 78.03 271.34 75.22 269.80 C 74.11 264.69 77.00 259.72 74.97 254.98 C 73.68 251.95 81.95 250.03 75.13 250.42 C 74.93 242.14 74.80 233.67 75.21 225.41 C 77.32 225.07 78.45 226.50 77.79 223.48 C 73.42 224.06 75.43 221.46 74.95 218.43 C 77.79 220.59 79.50 217.93 82.70 219.56 C 83.60 215.44 85.67 212.71 80.23 211.22 C 78.58 213.47 78.00 215.85 75.16 216.94 C 74.76 203.97 75.14 190.95 74.97 177.97 C 74.91 175.51 75.13 174.61 76.80 172.83 Z" fill="#578f3d" />
<path d="M 276.66 175.25 C 278.57 175.44 283.40 179.53 283.53 175.86 L 284.31 177.18 C 282.89 179.85 280.92 180.29 278.06 179.85 C 267.94 178.26 258.05 177.48 247.80 178.19 C 242.07 177.62 236.51 178.14 230.85 178.93 C 232.94 177.74 235.27 175.55 237.81 176.29 C 244.30 177.56 250.29 176.81 257.00 177.01 C 260.97 176.90 264.46 177.75 268.02 175.52 C 271.73 178.68 272.86 172.94 276.66 175.25 Z" fill="#487f47" />
<path d="M 316.12 176.18 C 315.68 177.11 315.27 178.05 314.87 179.00 C 313.69 183.18 310.84 186.06 308.94 189.82 C 304.90 197.89 304.87 207.55 308.19 215.87 C 300.71 211.03 306.75 206.58 303.67 199.20 C 300.08 198.99 296.29 199.34 292.69 199.63 C 291.45 209.64 298.85 221.60 302.04 230.98 C 304.46 237.08 306.05 242.47 299.96 246.86 C 302.35 248.27 303.49 251.82 306.24 249.17 C 308.45 251.62 309.31 255.52 310.23 258.61 C 308.54 258.31 307.00 258.31 305.30 258.52 C 301.45 255.89 299.32 256.80 298.52 251.28 C 292.73 252.11 286.95 251.82 281.18 252.69 C 280.14 239.28 282.28 226.30 282.87 213.02 C 279.64 213.55 277.18 217.68 274.92 219.86 C 269.97 217.71 264.31 219.53 258.84 218.96 C 263.14 216.35 265.26 215.82 265.32 210.15 C 268.98 211.41 269.48 214.62 272.07 217.00 C 274.60 217.20 273.55 215.84 274.02 214.08 C 274.25 212.51 274.57 210.95 274.83 209.37 C 271.93 210.77 272.21 211.08 270.14 208.43 C 274.36 207.40 276.00 207.54 277.32 202.95 C 279.52 204.91 282.31 211.25 285.02 206.01 C 287.27 199.38 293.56 192.07 288.48 185.55 C 286.62 181.63 282.81 183.95 279.06 181.54 C 281.29 180.95 283.39 180.32 285.34 179.05 C 286.73 180.86 286.85 182.44 289.60 181.61 C 298.05 179.00 308.69 180.83 316.12 176.18 Z" fill="#8abd62" />
<path d="M 284.31 177.18 C 284.66 177.80 285.01 178.43 285.34 179.05 C 283.39 180.32 281.29 180.95 279.06 181.54 C 282.81 183.95 286.62 181.63 288.48 185.55 C 293.56 192.07 287.27 199.38 285.02 206.01 C 282.31 211.25 279.52 204.91 277.32 202.95 C 275.19 199.94 273.79 196.69 272.70 193.19 C 271.07 188.60 266.99 187.40 263.76 184.24 C 260.02 180.06 252.97 180.41 247.80 178.19 C 258.05 177.48 267.94 178.26 278.06 179.85 C 280.92 180.29 282.89 179.85 284.31 177.18 Z" fill="#6faf68" />
<path d="M 206.75 180.34 C 207.58 183.70 204.36 186.74 205.02 190.37 C 207.09 190.31 208.63 190.63 210.57 191.32 C 212.14 187.22 217.41 189.89 218.80 192.96 C 215.78 194.45 214.30 190.14 212.27 193.50 C 213.79 194.64 218.24 196.74 217.97 198.87 C 215.05 202.07 207.27 205.80 204.02 201.14 C 202.32 204.13 208.45 210.38 210.78 207.52 C 211.31 210.49 211.09 209.24 213.16 208.30 C 218.88 211.73 220.58 202.29 226.79 203.52 C 230.80 201.51 233.58 204.70 237.63 203.65 C 245.93 202.40 255.94 197.46 263.50 195.44 C 268.14 198.93 264.70 198.85 262.23 201.96 C 266.57 205.67 257.66 203.40 255.79 204.22 C 249.95 203.34 244.77 205.00 239.13 206.06 C 233.97 206.75 227.68 208.28 223.69 211.75 C 215.79 212.98 209.61 209.89 202.17 208.38 C 194.41 219.27 190.66 233.85 192.97 247.08 C 195.80 253.50 198.36 260.01 202.08 265.98 C 196.27 263.67 194.88 258.28 190.04 254.96 C 182.74 249.48 174.79 245.15 167.71 239.32 C 169.77 235.41 165.22 225.67 170.85 225.20 C 172.15 227.34 172.38 229.26 172.19 231.73 C 174.82 227.72 174.99 232.21 177.30 228.41 C 178.98 225.41 181.77 225.80 184.66 224.74 C 182.54 221.78 182.03 221.19 182.48 217.42 C 180.64 215.84 176.33 214.73 176.01 212.11 C 180.64 212.54 182.26 216.62 185.20 211.15 C 183.36 206.63 186.07 210.42 187.71 211.55 C 188.31 209.41 189.00 207.40 190.46 205.68 C 195.66 205.21 202.79 200.00 201.95 194.11 C 200.63 194.46 198.65 196.31 197.37 195.74 C 195.59 193.63 195.73 191.18 192.33 191.48 C 190.82 192.04 185.88 188.68 189.98 189.00 C 194.07 189.49 188.39 184.52 189.98 182.02 C 189.84 176.65 195.75 183.94 198.13 180.13 C 201.24 176.97 203.34 178.82 206.75 180.34 Z" fill="#86bb61" />
<path d="M 314.87 179.00 C 314.97 179.94 315.09 180.87 315.25 181.80 C 326.62 181.21 335.37 178.04 346.18 182.02 C 349.03 184.36 347.53 186.16 346.18 182.02 C 335.37 178.04 326.62 181.21 315.25 181.80 C 315.09 180.87 314.97 179.94 314.87 179.00 Z" fill="#2f5e37" />
<path d="M 314.87 179.00 C 314.97 179.94 315.09 180.87 315.25 181.80 C 326.62 181.21 335.37 178.04 346.18 182.02 C 349.03 184.36 347.53 186.16 347.01 189.20 C 339.10 186.52 332.62 183.56 324.81 188.82 C 318.27 194.43 313.68 202.72 309.62 210.23 C 307.79 202.76 309.68 196.52 310.97 189.32 C 310.29 189.47 309.62 189.64 308.94 189.82 C 310.84 186.06 313.69 183.18 314.87 179.00 Z" fill="#61a061" />
<path d="M 347.01 189.20 C 347.16 196.60 344.35 203.46 344.56 210.94 C 341.44 209.73 339.46 207.33 335.99 206.87 C 329.94 205.26 326.25 205.62 321.01 209.04 C 318.48 210.77 315.94 212.48 315.95 215.88 C 317.89 213.90 319.68 211.77 321.48 209.66 C 324.30 214.38 324.15 217.86 330.36 219.65 C 336.36 220.40 339.12 214.21 337.06 209.00 C 339.74 211.45 343.97 212.73 344.25 216.81 C 345.86 227.31 350.32 237.32 351.38 247.84 C 353.82 263.96 349.11 277.72 344.79 292.83 C 341.53 308.47 335.62 323.14 330.38 338.16 C 330.15 330.22 323.84 335.55 321.12 338.84 L 320.74 337.30 C 312.20 342.35 299.50 342.41 290.69 337.97 C 289.35 334.65 290.98 333.00 291.98 330.00 C 292.57 327.41 288.29 327.73 286.64 326.81 C 288.30 324.38 285.53 324.61 284.06 323.22 C 286.45 323.00 288.84 322.83 291.23 322.64 C 301.48 323.96 310.68 327.36 320.28 322.25 C 322.60 320.35 324.51 318.18 327.17 316.66 C 331.21 313.98 326.81 305.28 325.08 301.95 C 322.69 296.62 317.64 298.37 313.61 300.57 C 308.99 301.26 303.70 298.54 298.83 298.70 C 306.65 293.54 311.97 302.05 318.64 296.65 C 321.87 295.01 318.52 290.60 317.74 288.32 C 316.45 285.31 317.32 281.51 316.73 278.29 C 308.21 276.05 299.58 274.87 291.02 277.67 C 284.45 274.57 278.80 271.21 281.67 262.82 C 282.28 266.86 281.89 266.46 283.54 263.21 C 284.80 264.78 285.77 266.61 287.09 268.10 C 293.34 265.63 299.29 261.63 305.30 258.52 C 307.00 258.31 310.23 258.61 C 310.86 259.36 311.49 260.11 312.14 260.85 C 308.81 259.95 306.68 260.04 303.41 261.08 C 305.03 263.45 305.28 262.89 302.98 264.77 C 298.95 266.10 293.22 267.74 295.87 273.23 C 294.40 276.12 297.21 274.57 298.98 275.05 C 306.83 275.92 314.04 271.55 320.69 275.02 C 318.63 279.14 319.31 278.23 323.19 277.37 C 328.22 276.01 330.64 270.81 329.80 265.92 C 327.31 269.55 328.94 272.93 323.18 273.05 C 327.56 266.54 334.32 255.79 328.72 248.31 C 325.38 241.00 320.02 235.31 317.44 227.61 C 315.37 221.57 311.45 216.30 309.62 210.23 C 313.68 202.72 318.27 194.43 324.81 188.82 C 332.62 183.56 339.10 186.52 347.01 189.20 Z" fill="#7bb15f" />
<path d="M 310.97 189.32 C 309.68 196.52 307.79 202.76 309.62 210.23 C 311.45 216.30 315.37 221.57 317.44 227.61 C 320.02 235.31 325.38 241.00 328.72 248.31 C 334.32 255.79 327.56 266.54 323.18 273.05 C 328.94 272.93 327.31 269.55 329.80 265.92 C 330.64 270.81 328.22 276.01 323.19 277.37 C 321.05 273.10 320.88 273.06 316.06 272.66 C 321.38 270.22 324.50 267.74 326.21 261.91 C 329.94 251.01 321.90 243.62 317.62 234.35 C 314.05 228.36 310.96 222.28 308.19 215.87 C 304.87 207.55 304.90 197.89 308.94 189.82 C 309.62 189.64 310.29 189.47 310.97 189.32 Z" fill="#387133" />
<path d="M 303.67 199.20 C 306.75 206.58 300.71 211.03 308.19 215.87 C 310.96 222.28 314.05 228.36 317.62 234.35 C 321.90 243.62 329.94 251.01 326.21 261.91 C 321.40 261.13 317.00 262.84 312.14 260.85 C 311.49 260.11 310.86 259.36 310.23 258.61 C 309.31 255.52 308.45 251.62 306.24 249.17 C 303.49 251.82 302.35 248.27 299.96 246.86 C 306.05 242.47 304.46 237.08 302.04 230.98 C 298.85 221.60 291.45 209.64 292.69 199.63 C 296.29 199.34 300.08 198.99 303.67 199.20 Z" fill="#a6cb66" />
<path d="M 255.79 204.22 C 265.54 205.51 267.52 207.16 274.02 214.08 C 273.55 215.84 274.60 217.20 272.07 217.00 C 269.48 214.62 268.98 211.41 265.32 210.15 C 265.26 215.82 263.14 216.35 258.84 218.96 C 255.63 219.17 252.79 218.19 249.82 217.15 C 248.07 214.58 250.04 206.35 245.20 208.28 C 241.79 208.97 238.51 209.22 235.03 208.86 C 236.35 207.86 237.73 206.96 239.13 206.06 C 244.77 205.00 249.95 203.34 255.79 204.22 Z" fill="#40783f" />
<path d="M 239.13 206.06 C 237.73 206.96 236.35 207.86 235.03 208.86 C 238.51 209.22 241.79 208.97 245.20 208.28 C 250.04 206.35 248.07 214.58 249.82 217.15 C 240.96 216.98 232.44 213.20 223.69 211.75 C 227.68 208.28 233.97 206.75 239.13 206.06 Z" fill="#68a557" />
<path d="M 335.99 206.87 C 336.35 207.58 336.71 208.29 337.06 209.00 C 339.12 214.21 336.36 220.40 330.36 219.65 C 324.15 217.86 324.30 214.38 321.48 209.66 L 321.01 209.04 C 326.25 205.62 329.94 205.26 335.99 206.87 Z" fill="#3a723c" />
<path d="M 129.61 214.45 C 136.18 216.52 140.74 219.83 145.22 225.00 C 143.60 237.32 147.10 251.59 149.27 263.98 C 148.03 267.62 146.44 270.96 142.25 271.64 C 138.06 272.47 134.98 277.59 132.23 280.63 C 138.28 281.22 130.54 283.80 128.85 284.50 C 122.12 282.08 115.59 278.00 110.83 272.61 C 101.92 264.65 97.45 251.35 96.39 239.80 C 94.06 228.80 97.27 215.40 107.66 209.67 C 115.29 205.24 122.54 212.16 129.61 214.45 Z" fill="#aocf6e" />
<path d="M 202.17 208.38 C 209.61 209.89 215.79 212.98 223.69 211.75 C 232.44 213.20 240.96 216.98 249.82 217.15 C 252.79 218.19 255.63 219.17 258.84 218.96 C 264.31 219.53 269.97 217.71 274.92 219.86 C 277.25 219.84 279.03 217.29 280.93 216.09 C 279.09 231.11 281.05 246.14 279.08 261.11 C 278.08 269.80 279.76 279.91 291.02 277.67 C 299.58 274.87 308.21 276.05 316.73 278.29 C 317.32 281.51 316.45 285.31 317.74 288.32 C 318.52 290.60 321.87 295.01 318.64 296.65 C 311.97 302.05 306.65 293.54 298.83 298.70 C 289.21 303.15 284.79 312.45 274.83 315.83 C 273.08 316.95 268.46 317.24 271.08 320.00 C 275.06 325.38 279.65 329.94 284.26 334.74 C 289.02 338.10 281.76 347.52 285.29 350.78 C 292.83 350.86 299.09 346.97 306.92 350.18 C 315.15 351.87 315.58 362.32 312.35 368.34 C 308.25 377.45 297.55 382.99 288.02 383.94 C 281.46 383.76 273.59 385.09 267.48 382.41 C 263.49 380.19 259.16 378.97 255.03 377.07 C 244.41 371.47 237.44 360.46 235.09 348.89 C 233.17 342.02 230.85 335.88 227.58 329.55 C 225.94 320.36 221.76 312.27 218.51 303.63 C 217.75 296.13 214.76 289.32 211.33 282.67 C 208.15 276.78 206.89 270.98 202.08 265.98 C 198.36 260.01 195.80 253.50 192.97 247.08 C 190.66 233.85 194.41 219.27 202.17 208.38 Z" fill="#a8cb63" />
<path d="M 321.01 209.04 L 321.48 209.66 C 319.68 211.77 317.89 213.90 315.95 215.88 C 315.94 212.48 318.48 210.77 321.01 209.04 Z" fill="#488234" />
<path d="M 382.75 208.73 C 383.52 268.82 382.46 329.16 383.29 389.24 C 382.63 391.91 381.93 394.58 381.22 397.23 C 382.53 381.15 381.84 365.15 382.00 349.00 C 382.02 304.01 381.97 258.96 382.03 213.98 C 381.71 211.93 382.64 210.10 379.93 209.70 C 380.87 209.37 381.81 209.05 382.75 208.73 Z" fill="#739f5b" />
<path d="M 282.87 213.02 C 282.28 226.30 280.14 239.28 281.18 252.69 C 286.95 251.82 292.73 252.11 298.52 251.28 C 299.32 256.80 301.45 255.89 305.30 258.52 C 299.29 261.63 293.34 265.63 287.09 268.10 C 285.77 266.61 284.80 264.78 283.54 263.21 C 281.89 266.46 282.28 266.86 281.67 262.82 C 282.32 260.54 282.99 258.36 282.91 255.96 C 281.24 257.42 280.20 259.24 279.08 261.11 C 281.05 246.14 279.09 231.11 280.93 216.09 C 279.03 217.29 277.25 219.84 274.92 219.86 C 277.18 217.68 279.64 213.55 282.87 213.02 Z" fill="#9bc669" />
<path d="M 115.67 216.36 C 126.15 218.67 130.84 232.91 132.29 242.15 C 131.08 243.92 131.63 245.30 129.12 244.09 C 128.54 242.19 127.82 240.38 126.87 238.64 C 126.48 237.32 126.52 236.13 126.68 234.78 C 126.97 232.90 126.92 231.67 126.00 229.98 C 124.16 225.58 121.34 221.79 117.11 219.45 C 111.38 219.61 104.90 217.69 102.99 224.94 C 101.64 229.16 102.96 234.57 100.27 238.05 C 99.95 234.29 99.96 230.52 99.68 226.75 C 101.74 217.49 106.13 214.39 115.67 216.36 Z" fill="#416f31" />
<path d="M 117.11 219.45 C 113.02 220.20 113.51 225.95 110.20 225.95 C 107.25 222.39 106.91 223.56 102.99 224.94 C 104.90 217.69 111.38 219.61 117.11 219.45 Z" fill="#5b8d4b" />
<path d="M 117.11 219.45 C 121.34 221.79 124.16 225.58 126.00 229.98 C 121.90 229.86 118.46 230.97 115.15 227.91 C 111.24 225.31 109.19 228.02 107.06 231.04 C 106.97 230.02 106.87 229.00 106.75 227.99 C 101.93 234.43 103.20 240.73 102.77 248.21 C 100.30 240.77 96.91 234.81 99.68 226.75 C 99.96 230.52 99.95 234.29 100.27 238.05 C 102.96 234.57 101.64 229.16 102.99 224.94 C 106.91 223.56 107.25 222.39 110.20 225.95 C 113.51 225.95 113.02 220.20 117.11 219.45 Z" fill="#7ca95d" />
<path d="M 145.22 225.00 C 150.68 231.23 156.82 235.75 163.02 241.12 C 166.31 239.95 164.47 234.78 164.69 232.00 C 166.72 234.10 165.14 238.09 167.71 239.32 C 174.79 245.15 182.74 249.48 190.04 254.96 C 194.88 258.28 196.27 263.67 202.08 265.98 C 204.59 273.01 208.00 279.84 211.70 286.32 C 213.52 290.04 215.53 293.67 214.87 297.96 C 208.91 294.59 202.22 289.66 197.51 284.50 C 192.87 281.94 189.03 279.47 184.98 276.03 C 181.98 273.23 180.31 277.57 179.97 280.02 C 180.42 287.16 184.24 294.05 184.87 301.17 C 183.57 299.50 182.33 297.77 181.04 296.09 C 178.98 298.33 178.39 299.18 175.09 299.06 C 176.44 298.11 177.82 297.25 179.07 296.18 C 174.59 294.51 171.87 299.25 168.34 296.74 C 166.81 293.60 173.84 296.28 174.83 293.47 C 171.77 292.04 169.08 290.12 166.23 288.35 C 169.38 286.92 176.51 285.79 177.93 282.43 C 175.54 282.09 171.95 282.66 169.99 281.28 C 176.53 282.30 177.44 276.52 178.45 271.42 C 182.18 269.84 184.53 268.43 184.90 264.03 C 186.03 261.29 177.48 265.44 179.82 262.78 C 183.02 257.84 173.48 265.21 175.65 259.18 C 171.94 262.06 170.43 258.35 166.18 258.93 C 167.07 259.92 168.02 260.85 168.90 261.85 C 162.16 261.29 156.58 263.92 149.95 263.84 L 149.27 263.98 C 147.10 251.59 143.60 237.32 145.22 225.00 Z" fill="#73b16e" />
<path d="M 106.75 227.99 C 106.87 229.00 106.97 230.02 107.06 231.04 C 105.50 237.82 104.46 245.01 105.11 251.97 C 105.28 254.46 108.40 256.17 105.27 257.93 C 103.97 254.83 103.32 251.51 102.77 248.21 C 103.20 240.73 101.93 234.43 106.75 227.99 Z" fill="#5e8638" />
<path d="M 126.68 234.78 C 126.52 236.13 126.48 237.32 126.87 238.64 C 123.07 239.71 120.30 242.84 116.76 244.83 C 116.77 243.56 120.02 239.54 117.22 239.93 C 119.82 237.57 123.56 236.33 126.68 234.78 Z" fill="#62984d" />
<path d="M 126.87 238.64 C 127.82 240.38 128.54 242.19 129.12 244.09 C 127.83 248.55 128.58 251.96 122.95 252.88 C 119.02 253.18 118.59 255.17 116.94 258.23 C 112.74 253.17 111.03 249.68 116.76 244.83 C 120.30 242.84 123.07 239.71 126.87 238.64 Z" fill="#7db972" />
<path d="M 117.22 239.93 C 120.02 239.54 116.77 243.56 116.76 244.83 C 111.03 249.68 112.74 253.17 116.94 258.23 C 121.76 261.13 127.15 255.60 132.09 259.84 C 134.77 260.80 136.52 264.30 138.87 264.86 C 139.20 262.11 139.28 260.77 137.23 258.76 C 132.45 254.51 136.03 249.23 134.74 242.86 C 137.27 241.89 137.69 241.45 138.66 244.33 C 138.71 249.20 136.23 254.55 140.14 258.89 C 142.17 260.51 141.84 264.08 141.30 266.32 C 135.43 269.81 131.80 260.39 126.03 261.01 C 120.97 260.46 116.50 262.86 113.35 257.65 C 107.99 250.81 111.77 244.94 117.22 239.93 Z" fill="#487730" />
<path d="M 132.29 242.15 C 133.11 242.40 133.92 242.63 134.74 242.86 C 136.03 249.23 132.45 254.51 137.23 258.76 C 139.28 260.77 139.20 262.11 138.87 264.86 C 136.52 264.30 134.77 260.80 132.09 259.84 C 127.15 255.60 121.76 261.13 116.94 258.23 C 118.59 255.17 119.02 253.18 122.95 252.88 C 128.58 251.96 127.83 248.55 129.12 244.09 C 131.63 245.30 131.08 243.92 132.29 242.15 Z" fill="#66a05f" />
<path d="M 282.91 255.96 C 282.99 258.36 282.32 260.54 281.67 262.82 C 278.80 271.21 284.45 274.57 291.02 277.67 C 279.76 279.91 278.08 269.80 279.08 261.11 C 280.20 259.24 281.24 257.42 282.91 255.96 Z" fill="#608e48" />
<path d="M 166.18 258.93 C 170.43 258.35 171.94 262.06 175.65 259.18 C 173.48 265.21 183.02 257.84 179.82 262.78 C 177.48 265.44 186.03 261.29 184.90 264.03 C 184.53 268.43 182.18 269.84 178.45 271.42 C 177.44 276.52 176.53 282.30 169.99 281.28 C 171.95 282.66 175.54 282.09 177.93 282.43 C 176.51 285.79 169.38 286.92 166.23 288.35 C 169.08 290.12 171.77 292.04 174.83 293.47 C 173.84 296.28 166.81 293.60 168.34 296.74 C 171.87 299.25 174.59 294.51 179.07 296.18 C 177.82 297.25 176.44 298.11 175.09 299.06 C 178.39 299.18 178.98 298.33 181.04 296.09 C 182.33 297.77 183.57 299.50 184.87 301.17 C 189.27 314.49 191.61 328.36 197.56 341.41 C 203.40 351.35 214.69 358.30 224.92 363.00 C 227.20 365.75 229.30 367.80 232.92 368.58 C 230.40 370.14 226.68 368.38 225.04 370.70 C 228.48 372.05 229.47 371.64 232.61 370.09 C 232.62 372.74 232.39 374.20 230.77 376.38 C 215.81 371.10 202.54 363.62 188.33 356.66 C 172.41 347.96 163.45 332.91 157.85 316.19 C 153.34 317.19 158.38 326.88 159.20 329.66 C 155.54 329.75 152.36 329.93 149.12 327.89 C 145.04 322.56 142.97 331.45 142.52 334.48 C 137.42 336.84 134.49 343.28 132.07 348.13 C 133.46 337.99 133.62 327.43 134.00 317.20 C 134.88 308.34 131.96 300.00 133.28 291.28 C 138.65 289.35 144.55 291.18 148.99 288.02 C 150.48 287.27 149.38 286.18 149.13 285.04 C 150.02 284.92 150.91 284.78 151.80 284.63 C 151.06 277.64 149.44 270.95 149.95 263.84 C 156.58 263.92 162.16 261.29 168.90 261.85 C 168.02 260.85 167.07 259.92 166.18 258.93 Z" fill="#6cab6a" />
<path d="M 312.14 260.85 C 317.00 262.84 321.40 261.13 326.21 261.91 C 324.50 267.74 321.38 270.22 316.06 272.66 C 320.88 273.06 321.05 273.10 323.19 277.37 C 319.31 278.23 318.63 279.14 320.69 275.02 C 314.04 271.55 306.83 275.92 298.98 275.05 C 297.21 274.57 294.40 276.12 295.87 273.23 C 299.80 270.86 306.86 270.78 309.19 266.97 C 307.45 265.12 305.34 265.07 302.98 264.77 C 305.28 262.89 305.03 263.45 303.41 261.08 C 306.68 260.04 308.81 259.95 312.14 260.85 Z" fill="#66a65e" />
<path d="M 149.27 263.98 L 149.95 263.84 C 149.44 270.95 151.06 277.64 151.80 284.63 C 150.91 284.78 150.02 284.92 149.13 285.04 C 142.38 287.83 135.71 286.44 128.85 284.50 C 130.54 283.80 138.28 281.22 132.23 280.63 C 134.98 277.59 138.06 272.47 142.25 271.64 C 146.44 270.96 148.03 267.62 149.27 263.98 Z" fill="#9ac567" />
<path d="M 302.98 264.77 C 305.34 265.07 307.45 265.12 309.19 266.97 C 306.86 270.78 299.80 270.86 295.87 273.23 C 293.22 267.74 298.95 266.10 302.98 264.77 Z" fill="#2d6c33" />
<path d="M 202.08 265.98 C 206.89 270.98 208.15 276.78 211.33 282.67 C 214.76 289.32 217.75 296.13 218.51 303.63 C 221.76 312.27 225.94 320.36 227.58 329.55 C 230.85 335.88 233.17 342.02 235.09 348.89 C 237.44 360.46 244.41 371.47 255.03 377.07 C 244.80 373.52 235.19 366.81 224.92 363.00 C 214.69 358.30 203.40 351.35 197.56 341.41 C 191.61 328.36 189.27 314.49 184.87 301.17 C 184.24 294.05 180.42 287.16 179.97 280.02 C 180.31 277.57 181.98 273.23 184.98 276.03 C 189.03 279.47 192.87 281.94 197.51 284.50 C 202.22 289.66 208.91 294.59 214.87 297.96 C 215.53 293.67 213.52 290.04 211.70 286.32 C 208.00 279.84 204.59 273.01 202.08 265.98 Z" fill="#86ba59" />
<path d="M 110.83 272.61 C 115.59 278.00 122.12 282.08 128.85 284.50 C 135.71 286.44 142.38 287.83 149.13 285.04 C 149.38 286.18 150.48 287.27 148.99 288.02 C 144.55 291.18 138.65 289.35 133.28 291.28 C 131.96 300.00 134.88 308.34 134.00 317.20 C 131.36 318.29 131.54 315.29 130.29 313.68 C 123.43 301.39 118.40 287.96 110.96 276.01 C 110.17 274.76 110.48 273.94 110.83 272.61 Z" fill="#376c37" />
<path d="M 308.01 278.70 C 309.92 280.91 310.39 284.05 311.33 286.81 C 312.03 289.51 315.23 294.91 310.08 295.02 C 304.10 293.00 305.25 282.80 308.01 278.70 Z" fill="#8eb659" />
<path d="M 325.08 301.95 C 326.81 305.28 331.21 313.98 327.17 316.66 C 325.34 313.20 320.47 311.00 317.02 309.47 C 312.21 310.09 307.62 310.40 302.84 309.28 C 296.42 307.78 291.28 312.48 285.64 314.52 C 282.12 315.32 278.42 315.53 274.83 315.83 C 284.79 312.45 289.21 303.15 298.83 298.70 C 303.70 298.54 308.99 301.26 313.61 300.57 C 317.64 298.37 322.69 296.62 325.08 301.95 Z" fill="#609d5d" />
<path d="M 302.84 309.28 C 307.62 310.40 312.21 310.09 317.02 309.47 C 320.47 311.00 325.34 313.20 327.17 316.66 C 324.51 318.18 322.60 320.35 320.28 322.25 C 310.68 327.36 301.48 323.96 291.23 322.64 C 284.47 321.62 277.76 322.06 271.08 320.00 C 268.46 317.24 273.08 316.95 274.83 315.83 C 278.42 315.53 282.12 315.32 285.64 314.52 C 291.28 312.48 296.42 307.78 302.84 309.28 Z" fill="#366a3d" />
<path d="M 235.02 315.08 C 244.41 315.44 253.99 322.77 262.65 326.43 C 264.44 329.89 255.74 331.90 255.97 335.84 C 260.62 340.59 265.89 344.53 270.83 348.91 C 268.60 350.50 262.94 346.21 260.00 345.98 C 253.35 343.22 246.63 339.92 240.20 336.67 C 242.48 333.24 247.87 331.36 248.72 327.23 C 244.72 322.37 238.34 320.16 235.02 315.08 Z" fill="#a0c052" />
<path d="M 157.85 316.19 C 163.45 332.91 172.41 347.96 188.33 356.66 C 202.54 363.62 215.81 371.10 230.77 376.38 C 242.79 381.62 254.97 385.89 267.36 390.18 C 266.43 392.71 262.95 391.92 260.78 392.36 C 245.95 389.05 231.59 380.99 218.60 375.47 C 206.88 370.16 195.18 365.35 184.07 358.89 C 173.26 352.12 164.59 341.16 159.20 329.66 C 158.38 326.88 153.34 317.19 157.85 316.19 Z" fill="#33733c" />
<path d="M 271.08 320.00 C 277.76 322.06 284.47 321.62 291.23 322.64 C 288.84 322.83 286.45 323.00 284.06 323.22 C 285.53 324.61 288.30 324.38 286.64 326.81 C 288.29 327.73 292.57 327.41 291.98 330.00 C 290.98 333.00 289.35 334.65 290.69 337.97 L 289.10 338.37 C 291.69 341.27 295.36 343.53 298.86 345.16 C 303.72 347.36 309.04 344.79 313.91 343.80 C 316.85 349.23 310.71 349.75 306.92 350.18 C 299.09 346.97 292.83 350.86 285.29 350.78 C 281.76 347.52 289.02 338.10 284.26 334.74 C 279.65 329.94 275.06 325.38 271.08 320.00 Z" fill="#68a75d" />
<path d="M 149.12 327.89 C 151.06 330.82 153.82 332.34 154.01 336.07 C 151.87 333.50 150.51 332.16 147.13 331.60 C 143.62 339.00 143.98 347.73 141.71 355.82 C 139.43 363.17 138.37 370.77 136.12 378.12 C 134.01 385.95 129.93 392.87 127.54 400.61 C 126.35 404.68 122.31 408.91 123.76 413.10 C 120.29 408.09 115.75 402.85 114.25 396.99 C 116.29 390.84 120.68 385.92 122.79 379.72 C 127.79 369.60 129.03 358.88 132.07 348.13 C 134.49 343.28 137.42 336.84 142.52 334.48 C 142.97 331.45 145.04 322.56 149.12 327.89 Z" fill="#89ba63" />
<path d="M 149.12 327.89 C 152.36 329.93 155.54 329.75 159.20 329.66 C 164.59 341.16 173.26 352.12 184.07 358.89 C 182.72 360.22 181.97 360.05 182.98 362.00 C 187.80 372.17 197.54 375.07 203.81 384.21 C 210.81 390.95 216.55 398.63 223.84 405.09 C 231.82 412.24 241.29 419.82 242.93 431.01 C 241.31 436.39 238.21 440.36 234.52 444.45 C 230.72 452.84 225.98 460.66 221.97 468.95 C 219.23 469.00 216.50 469.12 213.77 469.28 C 210.50 468.41 207.17 467.81 203.89 466.97 C 203.44 465.47 202.53 463.91 203.41 462.39 C 207.27 455.49 208.81 447.81 213.03 441.01 C 218.20 432.28 216.67 421.38 210.22 413.78 C 199.87 403.17 193.74 390.62 185.06 378.89 C 176.77 369.68 171.28 358.32 162.99 349.01 C 159.85 344.80 157.13 340.30 154.01 336.07 C 153.82 332.34 151.06 330.82 149.12 327.89 Z" fill="#79b369" />
<path d="M 304.05 328.76 C 306.58 329.07 309.18 328.90 311.70 329.30 C 314.77 331.40 314.75 333.61 311.70 335.71 C 306.70 336.23 300.28 336.27 295.31 335.68 C 293.87 334.52 293.36 329.40 295.95 328.94 C 298.59 327.25 301.17 328.56 304.05 328.76 Z" fill="#9cc965" />
<path d="M 147.13 331.60 C 150.51 332.16 151.87 333.50 154.01 336.07 C 157.13 340.30 159.85 344.80 162.99 349.01 C 171.28 358.32 176.77 369.68 185.06 378.89 C 193.74 390.62 199.87 403.17 210.22 413.78 C 216.67 421.38 218.20 432.28 213.03 441.01 C 208.81 447.81 207.27 455.49 203.41 462.39 C 202.53 463.91 203.44 465.47 203.89 466.97 C 198.04 464.98 191.86 464.28 186.15 461.94 C 181.66 459.06 176.95 456.90 172.06 454.80 C 170.86 453.82 169.72 453.18 168.26 452.65 C 167.24 452.21 166.24 451.76 165.23 451.31 C 149.13 441.57 134.90 428.23 123.76 413.10 C 122.31 408.91 126.35 404.68 127.54 400.61 C 129.93 392.87 134.01 385.95 136.12 378.12 C 138.37 370.77 139.43 363.17 141.71 355.82 C 143.98 347.73 143.62 339.00 147.13 331.60 Z" fill="#a7ca62" />
<path d="M 330.38 338.16 C 326.93 347.51 322.92 356.42 321.39 366.38 C 319.51 374.09 317.01 384.62 308.68 387.67 C 295.77 394.31 281.18 392.27 267.36 390.18 C 254.97 385.89 242.79 381.62 230.77 376.38 C 232.39 374.20 232.62 372.74 232.61 370.09 C 229.47 371.64 228.48 372.05 225.04 370.70 C 226.68 368.38 230.40 370.14 232.92 368.58 C 229.30 367.80 227.20 365.75 224.92 363.00 C 235.19 366.81 244.80 373.52 255.03 377.07 C 259.16 378.97 263.49 380.19 267.48 382.41 C 273.59 385.09 281.46 383.76 288.02 383.94 C 297.55 382.99 308.25 377.45 312.35 368.34 C 315.58 362.32 315.15 351.87 306.92 350.18 C 310.71 349.75 316.85 349.23 313.91 343.80 C 316.67 342.62 318.95 340.87 321.12 338.84 C 323.84 335.55 330.15 330.22 330.38 338.16 Z" fill="#7cb369" />
<path d="M 320.74 337.30 L 321.12 338.84 C 318.95 340.87 316.67 342.62 313.91 343.80 C 309.04 344.79 303.72 347.36 298.86 345.16 C 295.36 343.53 291.69 341.27 289.10 338.37 L 290.69 337.97 C 299.50 342.41 312.20 342.35 320.74 337.30 Z" fill="#31682c" />
<path d="M 96.00 355.13 C 90.70 359.82 84.87 364.01 79.22 368.28 C 80.98 371.62 83.94 373.00 86.21 376.04 C 80.35 381.26 68.03 378.50 69.63 389.21 C 69.32 387.44 69.07 385.66 68.77 383.89 C 67.74 381.40 62.29 385.60 60.53 381.88 C 63.05 380.09 68.90 377.55 69.01 374.09 C 67.46 371.41 64.64 369.52 62.83 366.96 C 64.52 365.79 66.27 365.00 68.05 363.96 L 69.26 363.26 C 70.90 362.93 72.54 362.61 74.14 362.11 C 81.34 359.47 88.53 356.95 96.00 355.13 Z" fill="#a3c65f" />
<path d="M 184.07 358.89 C 195.18 365.35 206.88 370.16 218.60 375.47 C 231.59 380.99 245.95 389.05 260.78 392.36 C 262.42 392.69 264.07 392.95 265.70 393.27 C 262.90 397.85 260.27 402.33 259.03 407.61 C 256.94 416.69 253.67 425.24 251.27 434.19 C 251.18 432.86 251.07 431.54 250.93 430.23 C 249.25 431.87 248.04 433.54 245.53 433.89 C 244.82 427.85 242.72 422.00 238.43 417.56 C 236.89 415.94 242.24 412.88 237.99 413.03 C 233.01 413.57 234.92 403.96 229.89 407.50 C 227.85 406.72 225.95 405.68 223.84 405.09 C 216.55 398.63 210.81 390.95 203.81 384.21 C 197.54 375.07 187.80 372.17 182.98 362.00 C 181.97 360.05 182.72 360.22 184.07 358.89 Z" fill="#539d64" />
<path d="M 110.98 401.04 C 103.85 408.20 94.79 413.75 87.89 420.99 C 90.01 425.79 98.10 425.83 92.78 431.55 C 87.23 433.68 82.94 439.78 78.97 444.07 C 74.18 448.85 74.17 444.70 69.91 442.16 C 68.61 440.40 67.18 438.73 65.96 436.92 C 67.64 434.66 70.21 433.13 72.17 431.10 C 76.55 427.26 76.92 427.49 71.83 424.20 C 69.87 420.68 67.88 420.81 71.96 417.86 C 74.33 416.61 77.98 416.61 78.18 413.34 C 82.76 414.14 88.12 409.98 92.35 408.37 C 98.50 406.11 104.50 402.01 110.98 401.04 Z" fill="#a5c65c" />
<path d="M 223.84 405.09 C 225.95 405.68 227.85 406.72 229.89 407.50 C 234.92 403.96 233.01 413.57 237.99 413.03 C 242.24 412.88 236.89 415.94 238.43 417.56 C 242.72 422.00 244.82 427.85 245.53 433.89 C 248.04 433.54 249.25 431.87 250.93 430.23 C 251.07 431.54 251.18 432.86 251.27 434.19 C 248.56 443.68 246.35 453.06 241.98 461.99 C 241.26 463.90 239.60 465.44 240.96 467.44 C 240.31 467.76 239.65 468.06 238.99 468.35 C 236.47 467.83 234.21 466.89 232.18 469.08 C 228.78 469.04 225.37 468.97 221.97 468.95 C 225.98 460.66 230.72 452.84 234.52 444.45 C 238.21 440.36 241.31 436.39 242.93 431.01 C 241.29 419.82 231.82 412.24 223.84 405.09 Z" fill="#5fa76d" />
<path d="M 126.81 451.15 C 139.40 451.97 152.70 452.83 165.23 451.31 C 166.24 451.76 167.24 452.21 168.26 452.65 C 157.47 453.58 146.54 452.43 135.75 453.34 C 132.74 452.75 129.73 452.09 126.81 451.15 Z" fill="#80a071" />
<path d="M 135.75 453.34 C 146.54 452.43 157.47 453.58 168.26 452.65 C 169.72 453.18 170.86 453.82 172.06 454.80 C 160.20 452.65 147.62 455.29 135.75 453.34 Z" fill="#c3dab6" />
<path d="M 238.99 468.35 C 236.76 469.58 234.60 469.23 232.18 469.08 C 234.21 466.89 236.47 467.83 238.99 468.35 Z" fill="#a5c1ad" />
<path d="M 213.77 469.28 C 216.50 469.12 219.23 469.00 221.97 468.95 C 225.37 468.97 228.78 469.04 232.18 469.08 C 226.93 470.69 219.16 470.33 213.77 469.28 Z" fill="#b6d5b7" />
</svg>