<?xml version="1.0" encoding="UTF-8" standalone="no"?>
<!DOCTYPE svg PUBLIC "-//W3C//DTD SVG 1.1//EN" "http://www.w3.org/Graphics/SVG/1.1/DTD/svg11.dtd">
<svg xmlns="http://www.w3.org/2000/svg" version="1.1" viewBox="0 0 1024 683" width="1024.0pt" height="683.0pt">
<path d="M 0.00 0.00 L 1024.00 0.00 L 1024.00 683.00 L 0.00 683.00 L 0.00 0.00 Z" fill="#f6f6f6" />
<path d="M 299.00 162.61 C 308.98 163.01 318.05 165.78 327.56 168.51 C 331.67 169.69 335.17 172.36 339.28 172.75 C 344.80 176.70 350.99 179.41 356.28 183.74 C 363.24 189.31 371.11 195.61 375.64 203.38 C 378.96 208.96 382.01 214.49 384.06 220.69 C 383.30 222.10 382.58 223.51 381.85 224.94 C 378.71 225.50 375.57 226.09 372.44 226.71 C 372.87 227.68 373.30 228.65 373.73 229.63 C 370.21 230.13 366.71 230.71 363.26 231.61 C 360.16 226.32 356.42 221.61 351.21 218.23 C 349.74 220.08 348.22 222.44 346.10 223.58 C 336.53 222.67 329.77 217.28 320.89 214.92 C 318.26 214.49 315.62 214.57 312.97 214.39 C 310.14 214.22 307.80 213.12 304.97 212.63 C 303.80 213.26 302.75 214.02 301.66 214.78 C 296.73 218.41 291.15 220.78 285.00 221.16 C 280.84 221.43 277.61 223.47 273.95 225.30 C 270.72 225.38 267.94 224.26 264.97 223.19 C 261.69 227.57 259.40 232.42 257.54 237.54 C 254.68 244.91 256.77 253.87 254.43 261.55 C 253.37 264.34 250.90 266.77 248.95 268.98 C 244.09 274.41 239.02 280.57 236.47 287.46 C 234.79 291.82 233.59 296.28 233.41 300.97 C 233.11 309.92 233.20 318.98 234.02 327.90 C 234.14 329.13 234.25 330.36 234.36 331.59 C 233.28 331.48 232.27 331.22 231.33 330.81 C 228.16 328.62 225.32 325.92 222.44 323.37 C 220.53 321.49 218.73 319.56 216.87 317.63 C 214.27 314.75 211.47 312.66 207.85 311.21 C 203.59 309.54 199.64 307.15 195.33 305.65 C 189.98 303.86 184.31 306.95 181.25 311.31 C 177.40 317.13 176.51 323.99 177.70 330.80 C 174.92 328.08 174.76 324.77 173.70 321.27 C 171.90 314.67 168.89 308.57 167.00 301.98 C 164.62 294.22 163.51 286.35 162.57 278.31 C 160.77 263.51 162.93 248.16 168.29 234.27 C 172.68 222.88 180.69 212.77 189.87 204.84 C 193.98 201.22 198.95 199.32 203.44 196.36 C 205.99 193.95 207.42 190.36 209.64 187.61 C 214.68 180.66 222.33 176.95 229.83 173.18 C 239.28 168.35 250.11 165.69 260.51 163.82 C 273.21 162.03 286.21 162.03 299.00 162.61 Z" fill="#33613c" />
<path d="M 229.83 173.18 C 222.33 176.95 214.68 180.66 209.64 187.61 C 207.42 190.36 205.99 193.95 203.44 196.36 C 198.95 199.32 193.98 201.22 189.87 204.84 C 180.69 212.77 172.68 222.88 168.29 234.27 C 162.93 248.16 160.77 263.51 162.57 278.31 C 163.51 286.35 164.62 294.22 167.00 301.98 C 168.89 308.57 171.90 314.67 173.70 321.27 C 174.76 324.77 174.92 328.08 177.70 330.80 C 178.53 337.43 180.37 343.53 183.27 349.55 C 185.12 352.85 187.53 355.61 190.16 358.31 C 190.91 362.99 193.48 366.37 195.40 370.59 C 199.37 379.07 203.48 387.62 208.51 395.53 C 208.37 402.33 208.55 409.21 207.84 415.98 C 207.13 419.55 206.39 423.12 205.61 426.68 C 203.40 438.76 198.37 449.67 192.21 460.19 C 194.37 464.26 196.83 468.11 199.48 471.87 C 209.04 486.06 221.96 496.94 236.47 505.81 C 227.85 505.60 219.17 506.02 210.56 505.58 C 196.72 504.16 184.37 497.57 174.42 488.02 C 175.32 487.10 176.22 486.17 177.10 485.24 C 174.68 483.48 172.32 481.65 170.00 479.76 C 176.67 474.00 183.91 468.87 190.38 462.90 C 181.24 465.80 172.68 470.49 163.77 474.02 C 163.23 473.37 162.69 472.71 162.15 472.05 C 157.94 464.77 156.11 456.71 155.37 448.40 C 160.42 446.92 165.22 444.90 170.15 443.07 C 168.01 440.93 165.85 438.82 163.68 436.72 C 168.29 432.60 173.39 429.13 178.17 425.21 C 170.53 427.75 162.69 429.85 155.20 432.79 C 155.04 425.86 154.79 418.94 154.88 412.00 C 154.98 395.33 154.72 378.66 155.11 362.00 C 155.07 338.00 155.26 313.98 154.93 289.99 C 155.42 276.64 154.79 263.35 154.88 250.00 C 154.96 239.60 154.13 230.00 156.90 219.80 C 162.31 198.34 179.59 180.76 200.92 174.88 C 210.56 172.11 219.98 172.77 229.83 173.18 Z" fill="#568f3e" />
<path d="M 339.28 172.75 C 345.75 172.63 352.61 172.25 359.02 173.18 C 369.45 174.42 379.59 178.84 388.17 184.81 C 400.34 193.85 409.45 207.25 412.49 222.18 C 414.19 230.05 413.22 237.70 413.62 246.12 C 409.94 249.71 405.91 252.87 401.91 256.08 C 404.19 258.19 406.52 260.25 408.90 262.26 C 403.35 266.51 397.57 270.33 392.40 275.06 C 399.58 273.24 406.43 270.30 413.52 268.15 C 413.39 275.47 413.49 282.79 413.53 290.12 C 409.67 291.31 405.88 292.74 402.01 293.94 C 404.23 296.08 406.49 298.17 408.78 300.24 C 404.11 304.35 398.59 307.21 394.09 311.48 C 400.60 309.72 407.03 307.52 413.40 305.31 C 413.50 352.21 413.45 399.10 413.44 446.00 C 413.59 466.06 402.58 485.11 385.85 495.92 C 375.84 502.76 364.07 506.02 352.00 506.21 C 335.95 506.25 319.88 506.18 303.82 506.24 C 305.95 500.94 307.39 495.45 309.01 489.98 C 311.18 482.96 311.38 474.98 311.96 467.69 C 313.83 464.01 316.08 460.65 317.30 456.64 C 317.58 455.80 317.85 454.96 318.12 454.12 C 324.36 455.77 330.58 455.92 337.00 455.83 C 343.63 455.75 350.81 453.91 356.15 449.85 C 362.64 441.95 361.80 433.35 365.10 424.32 C 366.94 419.36 368.86 414.42 370.73 409.47 C 374.53 399.37 377.86 389.13 380.67 378.71 C 383.65 367.62 387.76 356.62 387.49 345.00 C 387.66 333.75 383.99 324.00 381.31 312.85 C 380.67 309.41 378.30 307.73 375.87 305.53 C 375.75 307.42 375.66 309.32 375.45 311.19 C 375.59 308.73 375.57 306.30 375.57 303.84 C 377.51 304.87 379.37 306.04 381.22 307.22 C 381.82 302.82 382.78 298.49 383.39 294.10 C 383.76 290.70 384.01 287.29 384.17 283.87 C 384.53 279.74 383.13 276.42 381.46 272.77 C 381.05 271.78 380.65 270.79 380.27 269.79 C 382.94 264.43 383.82 258.74 384.74 252.90 C 386.34 241.95 387.63 231.42 384.06 220.69 C 382.01 214.49 378.96 208.96 375.64 203.38 C 371.11 195.61 363.24 189.31 356.28 183.74 C 350.99 179.41 344.80 176.70 339.28 172.75 Z" fill="#57903f" />
<path d="M 304.97 212.63 C 307.80 213.12 310.14 214.22 312.97 214.39 C 315.62 214.57 318.26 214.49 320.89 214.92 C 318.23 216.54 315.26 218.66 312.03 218.71 C 308.44 218.06 305.15 215.89 301.66 214.78 C 302.75 214.02 303.80 213.26 304.97 212.63 Z" fill="#507d3f" />
<path d="M 301.66 214.78 C 305.15 215.89 308.44 218.06 312.03 218.71 C 315.26 218.66 318.23 216.54 320.89 214.92 C 329.77 217.28 336.53 222.67 346.10 223.58 C 348.22 222.44 349.74 220.08 351.21 218.23 C 356.42 221.61 360.16 226.32 363.26 231.61 C 365.11 234.81 367.16 237.90 368.88 241.17 C 373.63 250.46 376.75 260.04 380.27 269.79 C 380.65 270.79 381.05 271.78 381.46 272.77 C 378.00 272.24 374.59 271.79 371.08 272.14 C 368.77 272.51 366.17 272.87 364.06 273.94 C 361.46 275.27 359.44 277.57 357.44 279.66 C 349.89 281.37 342.17 281.96 334.59 283.51 C 333.74 282.17 332.84 280.86 331.96 279.55 C 329.12 273.97 323.78 271.58 317.99 270.18 C 312.53 269.06 306.57 269.34 301.00 269.21 C 298.64 269.26 296.01 269.03 293.75 269.73 C 290.56 271.29 287.73 273.64 284.78 275.59 C 284.30 269.92 284.68 264.63 282.98 259.22 C 281.01 252.86 278.51 246.47 276.79 240.03 C 275.55 235.34 274.12 230.71 272.60 226.10 C 273.05 225.83 273.50 225.56 273.95 225.30 C 277.61 223.47 280.84 221.43 285.00 221.16 C 291.15 220.78 296.73 218.41 301.66 214.78 Z" fill="#aaca63" />
<path d="M 384.06 220.69 C 387.63 231.42 386.34 241.95 384.74 252.90 C 383.82 258.74 382.94 264.43 380.27 269.79 C 376.75 260.04 373.63 250.46 368.88 241.17 C 367.16 237.90 365.11 234.81 363.26 231.61 C 366.71 230.71 370.21 230.13 373.73 229.63 C 373.30 228.65 372.87 227.68 372.44 226.71 C 375.57 226.09 378.71 225.50 381.85 224.94 C 382.58 223.51 383.30 222.10 384.06 220.69 Z" fill="#305939" />
<path d="M 264.97 223.19 C 267.94 224.26 270.72 225.38 273.95 225.30 C 273.50 225.56 273.05 225.83 272.60 226.10 C 274.12 230.71 275.55 235.34 276.79 240.03 C 278.51 246.47 281.01 252.86 282.98 259.22 C 284.68 264.63 284.30 269.92 284.78 275.59 C 281.22 277.95 278.63 280.75 276.28 284.30 C 284.98 281.24 294.39 278.72 303.67 280.08 C 308.63 282.28 314.77 283.62 318.48 287.55 C 323.81 292.79 325.85 301.88 332.00 306.03 C 331.87 307.00 331.74 307.97 331.63 308.94 C 330.46 307.62 329.27 306.31 328.08 305.01 C 326.27 306.25 324.45 307.47 322.60 308.67 C 320.37 305.78 317.92 303.36 314.19 302.67 C 303.10 300.05 293.00 303.94 282.79 307.71 C 276.24 308.43 270.69 305.90 264.36 305.13 C 262.08 309.01 259.88 313.06 258.42 317.32 C 256.92 322.35 256.55 327.78 256.57 333.01 C 256.58 336.19 257.76 338.96 259.16 341.75 C 260.90 345.15 262.41 348.66 264.23 352.02 C 261.29 349.52 258.55 346.83 255.71 344.24 C 248.81 338.04 240.28 334.92 234.02 327.90 C 233.20 318.98 233.11 309.92 233.41 300.97 C 233.59 296.28 234.79 291.82 236.47 287.46 C 239.02 280.57 244.09 274.41 248.95 268.98 C 250.90 266.77 253.37 264.34 254.43 261.55 C 256.77 253.87 254.68 244.91 257.54 237.54 C 259.40 232.42 261.69 227.57 264.97 223.19 Z" fill="#83b85e" />
<path d="M 418.50 242.23 C 420.79 244.38 423.06 246.56 425.35 248.71 C 426.19 249.72 427.19 249.95 426.52 251.42 C 423.51 253.76 420.01 255.46 416.84 257.58 C 418.89 260.05 421.00 262.46 423.10 264.89 C 419.91 265.98 416.71 267.06 413.52 268.15 C 406.43 270.30 399.58 273.24 392.40 275.06 C 397.57 270.33 403.35 266.51 408.90 262.26 C 406.52 260.25 404.19 258.19 401.91 256.08 C 405.91 252.87 409.94 249.71 413.62 246.12 C 415.14 244.70 416.78 243.40 418.50 242.23 Z" fill="#a8c656" />
<path d="M 301.00 269.21 C 306.57 269.34 312.53 269.06 317.99 270.18 C 323.78 271.58 329.12 273.97 331.96 279.55 C 328.34 281.35 324.90 280.66 321.00 280.58 C 315.22 280.16 309.45 280.30 303.67 280.08 C 294.39 278.72 284.98 281.24 276.28 284.30 C 278.63 280.75 281.22 277.95 284.78 275.59 C 287.73 273.64 290.56 271.29 293.75 269.73 C 296.01 269.03 298.64 269.26 301.00 269.21 Z" fill="#316238" />
<path d="M 381.46 272.77 C 383.13 276.42 384.53 279.74 384.17 283.87 C 378.77 281.91 374.14 281.41 368.41 281.96 C 366.95 279.91 365.49 277.87 364.03 275.84 C 366.48 275.06 368.94 274.31 371.40 273.58 L 371.08 272.14 C 374.59 271.79 378.00 272.24 381.46 272.77 Z" fill="#305d3e" />
<path d="M 371.08 272.14 L 371.40 273.58 C 368.94 274.31 366.48 275.06 364.03 275.84 C 365.49 277.87 366.95 279.91 368.41 281.96 C 364.58 282.23 360.82 282.70 357.05 283.37 C 357.18 282.14 357.32 280.90 357.44 279.66 C 359.44 277.57 361.46 275.27 364.06 273.94 C 366.17 272.87 368.77 272.51 371.08 272.14 Z" fill="#2a4f32" />
<path d="M 331.96 279.55 C 332.84 280.86 333.74 282.17 334.59 283.51 C 336.76 287.56 337.36 291.59 336.21 296.09 C 334.70 299.37 333.11 302.57 332.00 306.03 C 325.85 301.88 323.81 292.79 318.48 287.55 C 314.77 283.62 308.63 282.28 303.67 280.08 C 309.45 280.30 315.22 280.16 321.00 280.58 C 324.90 280.66 328.34 281.35 331.96 279.55 Z" fill="#6faf6a" />
<path d="M 357.44 279.66 C 357.32 280.90 357.18 282.14 357.05 283.37 C 355.15 285.68 353.35 287.99 352.18 290.76 C 349.91 296.41 349.22 301.14 350.31 307.21 C 349.27 304.21 348.96 301.12 348.78 297.97 C 345.40 297.73 342.02 297.64 338.65 297.90 C 337.86 297.27 337.04 296.67 336.21 296.09 C 337.36 291.59 336.76 287.56 334.59 283.51 C 342.17 281.96 349.89 281.37 357.44 279.66 Z" fill="#89bb5c" />
<path d="M 368.41 281.96 C 374.14 281.41 378.77 281.91 384.17 283.87 C 384.01 287.29 383.76 290.70 383.39 294.10 C 383.45 293.06 383.46 292.01 383.43 290.97 C 383.67 289.22 381.73 288.83 380.50 288.25 C 376.54 286.87 372.69 285.76 368.65 287.63 C 361.01 290.68 356.90 299.91 352.69 306.46 C 351.27 300.76 352.42 295.48 353.79 289.93 C 353.25 290.21 352.71 290.48 352.18 290.76 C 353.35 287.99 355.15 285.68 357.05 283.37 C 360.82 282.70 364.58 282.23 368.41 281.96 Z" fill="#5fa164" />
<path d="M 430.01 285.99 C 425.22 289.05 420.54 292.28 415.80 295.43 C 418.02 297.77 420.28 300.06 422.29 302.59 C 419.30 303.41 416.32 304.24 413.40 305.31 C 407.03 307.52 400.60 309.72 394.09 311.48 C 398.59 307.21 404.11 304.35 408.78 300.24 C 406.49 298.17 404.23 296.08 402.01 293.94 C 405.88 292.74 409.67 291.31 413.53 290.12 C 419.01 288.68 424.47 287.17 430.01 285.99 Z" fill="#a9c759" />
<path d="M 380.50 288.25 C 381.73 288.83 383.67 289.22 383.43 290.97 C 383.46 292.01 383.45 293.06 383.39 294.10 C 382.78 298.49 381.82 302.82 381.22 307.22 C 379.37 306.04 377.51 304.87 375.57 303.84 C 372.50 303.24 368.81 302.75 365.81 303.82 C 361.93 305.63 358.25 307.41 357.68 312.15 C 359.68 309.94 361.56 307.64 363.47 305.34 C 363.91 307.52 364.07 309.96 365.00 312.00 C 366.75 313.72 369.73 314.29 372.08 314.48 C 373.57 313.81 374.82 312.73 375.45 311.19 C 375.66 309.32 375.75 307.42 375.87 305.53 C 378.30 307.73 380.67 309.41 381.31 312.85 C 383.99 324.00 387.66 333.75 387.49 345.00 C 387.76 356.62 383.65 367.62 380.67 378.71 C 377.86 389.13 374.53 399.37 370.73 409.47 C 368.77 408.66 367.01 408.24 364.87 408.54 C 364.07 406.82 362.30 404.57 362.55 402.60 C 363.83 399.42 366.49 396.77 368.25 393.81 C 368.49 388.93 367.61 383.58 364.14 379.90 C 362.63 378.29 360.96 378.88 359.02 379.02 C 360.08 378.28 361.12 377.50 362.16 376.72 C 359.79 372.10 359.46 367.06 357.82 362.27 C 355.28 361.26 352.50 360.78 349.81 360.34 C 352.63 359.87 355.37 359.15 358.13 358.42 C 360.06 358.41 362.00 358.43 363.94 358.48 C 363.41 359.71 362.88 360.94 362.35 362.17 C 364.64 361.17 366.94 360.66 368.33 358.38 C 369.85 356.25 369.95 353.99 369.81 351.45 C 368.82 353.25 368.41 355.16 368.09 357.18 C 366.77 357.64 365.45 358.10 364.12 358.55 C 367.08 353.76 371.04 346.86 369.90 341.06 C 367.54 334.69 362.82 329.21 360.05 322.96 C 357.64 317.45 354.84 312.08 352.69 306.46 C 356.90 299.91 361.01 290.68 368.65 287.63 C 372.69 285.76 376.54 286.87 380.50 288.25 Z" fill="#7fb35d" />
<path d="M 524.57 289.46 C 527.11 291.51 529.16 294.20 531.46 296.53 C 537.64 302.92 542.41 310.86 549.68 316.17 C 553.72 310.36 558.96 305.89 563.61 300.60 C 566.84 297.19 569.95 293.56 573.47 290.44 C 575.17 288.75 577.22 289.56 579.41 289.49 C 579.94 292.91 580.38 296.32 580.30 299.80 C 579.75 302.72 578.82 305.48 577.84 308.28 C 575.51 307.09 574.05 305.88 572.56 303.70 L 572.26 302.83 C 566.88 306.29 564.38 311.50 559.89 315.87 C 557.15 318.52 554.73 321.43 552.21 324.28 C 551.02 325.94 549.36 325.42 547.55 325.75 C 539.96 317.93 533.46 309.05 525.58 301.54 C 525.48 305.36 525.62 309.19 525.58 313.01 C 525.48 314.68 525.63 316.17 524.47 317.53 C 521.78 321.35 515.28 321.24 512.55 317.55 C 511.12 315.17 511.48 311.51 513.70 309.69 C 515.11 308.61 516.82 307.86 518.40 307.05 C 519.15 301.11 518.04 295.22 519.50 289.43 C 521.17 289.38 522.91 289.22 524.57 289.46 Z" fill="#aec659" />
<path d="M 353.79 289.93 C 352.42 295.48 351.27 300.76 352.69 306.46 C 354.84 312.08 357.64 317.45 360.05 322.96 C 362.82 329.21 367.54 334.69 369.90 341.06 C 371.04 346.86 367.08 353.76 364.12 358.55 C 365.45 358.10 366.77 357.64 368.09 357.18 C 368.41 355.16 368.82 353.25 369.81 351.45 C 369.95 353.99 369.85 356.25 368.33 358.38 C 366.94 360.66 364.64 361.17 362.35 362.17 C 362.88 360.94 363.41 359.71 363.94 358.48 C 362.00 358.43 360.06 358.41 358.13 358.42 C 361.89 356.16 365.16 353.78 366.67 349.46 C 367.49 345.98 368.32 342.80 366.56 339.43 C 361.46 328.70 354.26 318.98 350.31 307.21 C 349.22 301.14 349.91 296.41 352.18 290.76 C 352.71 290.48 353.25 290.21 353.79 289.93 Z" fill="#295e2b" />
<path d="M 336.21 296.09 C 337.04 296.67 337.86 297.27 338.65 297.90 C 339.24 301.24 339.43 304.38 340.38 307.63 C 341.89 312.92 344.50 317.50 346.55 322.53 C 348.32 326.89 348.32 331.54 350.01 335.96 C 351.27 339.31 352.37 342.67 352.83 346.23 C 350.90 346.76 349.02 347.44 347.09 348.00 L 345.67 348.08 C 346.34 347.67 347.01 347.26 347.68 346.84 C 346.14 344.99 344.62 342.87 342.69 341.42 C 339.48 340.74 335.95 341.11 332.70 341.47 C 331.99 343.31 331.35 345.18 330.68 347.03 C 330.52 345.98 330.33 344.94 330.10 343.90 C 329.58 341.62 329.12 339.35 329.08 337.00 C 329.01 327.97 329.64 319.03 329.94 310.02 C 327.12 311.98 325.53 314.51 321.72 313.37 C 322.78 313.24 323.84 313.11 324.89 312.97 C 324.60 312.40 324.31 311.83 324.01 311.25 C 323.56 310.38 323.09 309.52 322.60 308.67 C 324.45 307.47 326.27 306.25 328.08 305.01 C 329.27 306.31 330.46 307.62 331.63 308.94 C 331.74 307.97 331.87 307.00 332.00 306.03 C 333.11 302.57 334.70 299.37 336.21 296.09 Z" fill="#8dc063" />
<path d="M 348.78 297.97 C 348.96 301.12 349.27 304.21 350.31 307.21 C 354.26 318.98 361.46 328.70 366.56 339.43 C 368.32 342.80 367.49 345.98 366.67 349.46 C 363.81 349.39 360.83 349.49 358.00 348.99 C 356.15 348.58 354.46 347.18 352.83 346.23 C 352.37 342.67 351.27 339.31 350.01 335.96 C 348.32 331.54 348.32 326.89 346.55 322.53 C 344.50 317.50 341.89 312.92 340.38 307.63 C 339.43 304.38 339.24 301.24 338.65 297.90 C 342.02 297.64 345.40 297.73 348.78 297.97 Z" fill="#a8cc64" />
<path d="M 580.30 299.80 C 580.29 305.31 579.80 310.79 579.85 316.31 C 578.42 316.08 576.99 315.85 575.56 315.62 C 574.59 315.47 573.63 315.31 572.67 315.16 C 572.78 311.36 572.86 307.49 572.56 303.70 C 574.05 305.88 575.51 307.09 577.84 308.28 C 578.82 305.48 579.75 302.72 580.30 299.80 Z" fill="#b9d06f" />
<path d="M 314.19 302.67 C 317.92 303.36 320.37 305.78 322.60 308.67 C 323.09 309.52 323.56 310.38 324.01 311.25 C 323.44 311.51 322.86 311.76 322.29 312.01 C 320.45 309.84 318.53 307.74 316.59 305.66 C 316.10 308.95 315.78 310.90 313.03 312.97 C 309.73 314.02 307.01 313.34 303.77 312.57 C 303.16 309.83 302.71 307.10 302.37 304.31 C 297.21 305.15 292.26 305.97 287.76 308.84 C 286.12 308.37 284.46 308.01 282.79 307.71 C 293.00 303.94 303.10 300.05 314.19 302.67 Z" fill="#366f3c" />
<path d="M 375.57 303.84 C 375.57 306.30 375.59 308.73 375.45 311.19 C 374.82 312.73 373.57 313.81 372.08 314.48 C 369.73 314.29 366.75 313.72 365.00 312.00 C 364.07 309.96 363.91 307.52 363.47 305.34 C 361.56 307.64 359.68 309.94 357.68 312.15 C 358.25 307.41 361.93 305.63 365.81 303.82 C 368.81 302.75 372.50 303.24 375.57 303.84 Z" fill="#356d3d" />
<path d="M 195.33 305.65 C 199.64 307.15 203.59 309.54 207.85 311.21 C 211.47 312.66 214.27 314.75 216.87 317.63 C 216.82 321.15 216.98 324.66 217.58 328.15 C 218.28 331.96 218.80 335.76 219.12 339.63 C 218.65 341.07 218.13 342.49 217.63 343.92 C 216.87 343.89 216.11 343.86 215.35 343.83 C 214.44 341.74 213.47 339.69 212.60 337.59 C 212.51 335.89 212.41 334.20 212.32 332.51 L 210.04 333.50 C 208.68 332.86 207.92 332.31 207.18 331.01 C 205.66 324.70 203.08 316.32 197.05 312.94 C 193.92 310.88 190.15 310.76 186.59 311.58 C 184.07 312.22 182.64 314.46 181.69 316.72 C 180.05 320.89 180.25 325.93 181.03 330.26 C 181.39 332.27 182.03 334.28 182.55 336.26 C 183.27 339.20 183.93 342.03 185.16 344.81 L 187.11 345.82 L 187.70 346.15 C 186.18 347.23 184.73 348.39 183.27 349.55 C 180.37 343.53 178.53 337.43 177.70 330.80 C 176.51 323.99 177.40 317.13 181.25 311.31 C 184.31 306.95 189.98 303.86 195.33 305.65 Z" fill="#b0d16d" />
<path d="M 264.36 305.13 C 270.69 305.90 276.24 308.43 282.79 307.71 C 284.46 308.01 286.12 308.37 287.76 308.84 C 293.18 310.86 298.00 311.96 303.77 312.57 C 307.01 313.34 309.73 314.02 313.03 312.97 C 315.98 312.51 318.80 312.99 321.72 313.37 C 325.53 314.51 327.12 311.98 329.94 310.02 C 329.64 319.03 329.01 327.97 329.08 337.00 C 329.12 339.35 329.58 341.62 330.10 343.90 C 328.06 348.40 326.50 352.62 328.50 357.51 C 330.01 361.72 334.38 362.93 338.45 361.92 C 340.26 361.48 342.08 360.93 343.91 360.55 C 345.88 360.46 347.85 360.39 349.81 360.34 C 352.50 360.78 355.28 361.26 357.82 362.27 C 359.46 367.06 359.79 372.10 362.16 376.72 C 361.12 377.50 360.08 378.28 359.02 379.02 C 354.28 380.66 350.54 377.24 345.73 378.75 C 336.97 381.46 333.46 389.78 324.82 393.19 C 323.25 393.74 321.69 394.31 320.13 394.88 C 320.71 395.63 321.28 396.39 321.86 397.14 C 325.40 401.79 329.26 406.18 333.70 410.00 C 333.05 414.16 332.40 418.29 332.23 422.49 C 338.47 421.04 344.43 419.74 350.85 421.11 C 353.14 422.68 355.72 423.84 356.21 426.87 C 357.80 433.24 353.51 439.94 349.08 444.17 C 341.01 449.48 331.39 450.44 322.01 449.07 C 315.40 447.22 309.17 443.59 302.98 440.65 C 298.79 435.16 294.42 429.94 292.51 423.21 C 291.05 418.17 289.43 413.27 287.52 408.38 C 285.38 402.42 283.82 396.31 281.30 390.48 C 279.18 385.70 278.06 380.64 276.26 375.77 C 272.67 367.84 269.70 358.83 264.23 352.02 C 262.41 348.66 260.90 345.15 259.16 341.75 C 257.76 338.96 256.58 336.19 256.57 333.01 C 256.55 327.78 256.92 322.35 258.42 317.32 C 259.88 313.06 262.08 309.01 264.36 305.13 Z" fill="#abcb62" />
<path d="M 302.37 304.31 C 302.71 307.10 303.16 309.83 303.77 312.57 C 298.00 311.96 293.18 310.86 287.76 308.84 C 292.26 305.97 297.21 305.15 302.37 304.31 Z" fill="#73ad62" />
<path d="M 316.59 305.66 C 318.53 307.74 320.45 309.84 322.29 312.01 C 322.86 311.76 323.44 311.51 324.01 311.25 C 324.31 311.83 324.60 312.40 324.89 312.97 C 323.84 313.11 322.78 313.24 321.72 313.37 C 318.80 312.99 315.98 312.51 313.03 312.97 C 315.78 310.90 316.10 308.95 316.59 305.66 Z" fill="#77ae67" />
<path d="M 197.05 312.94 C 203.08 316.32 205.66 324.70 207.18 331.01 C 207.13 332.23 207.05 333.44 206.93 334.63 L 205.44 334.96 C 204.57 332.91 203.60 330.93 202.31 329.12 C 198.82 331.43 194.99 334.08 192.54 337.54 C 190.94 340.46 192.70 343.10 194.22 345.58 C 197.80 346.57 201.33 345.52 204.88 345.99 C 208.07 347.25 210.74 350.09 213.44 352.17 C 212.94 350.01 212.40 347.86 211.85 345.71 C 212.63 346.11 213.40 346.52 214.17 346.93 C 215.30 348.75 214.96 351.10 215.09 353.19 C 210.51 353.69 208.32 351.10 205.01 348.59 C 201.61 347.72 198.47 348.30 195.07 347.97 C 193.58 347.61 192.46 345.93 191.34 344.93 C 190.29 342.95 189.15 341.31 189.78 338.95 C 190.81 334.93 193.84 331.40 197.50 329.52 C 199.83 328.22 202.16 327.74 203.56 325.23 C 203.18 324.41 202.79 323.60 202.39 322.79 C 200.59 319.18 198.60 316.69 195.26 314.39 C 191.16 315.23 187.22 315.26 183.52 317.49 C 183.00 321.82 182.39 326.09 181.03 330.26 C 180.25 325.93 180.05 320.89 181.69 316.72 C 182.64 314.46 184.07 312.22 186.59 311.58 C 190.15 310.76 193.92 310.88 197.05 312.94 Z" fill="#40703d" />
<path d="M 195.26 314.39 C 198.60 316.69 200.59 319.18 202.39 322.79 L 201.17 323.10 C 197.07 323.67 194.57 321.37 190.95 320.18 C 189.67 320.38 188.42 320.92 187.22 321.43 C 182.95 324.59 182.85 331.45 182.55 336.26 C 182.03 334.28 181.39 332.27 181.03 330.26 C 182.39 326.09 183.00 321.82 183.52 317.49 C 187.22 315.26 191.16 315.23 195.26 314.39 Z" fill="#78a860" />
<path d="M 572.67 315.16 C 573.63 315.31 574.59 315.47 575.56 315.62 C 576.99 315.85 578.42 316.08 579.85 316.31 L 579.79 317.99 C 577.31 320.35 574.65 322.50 572.15 324.83 C 572.33 321.61 572.54 318.38 572.67 315.16 Z" fill="#98af5c" />
<path d="M 637.47 316.33 L 638.19 316.25 C 638.36 320.05 637.92 323.96 638.44 327.73 C 639.74 329.70 642.84 330.49 644.90 331.43 C 646.58 328.36 648.22 325.27 649.82 322.16 C 650.35 324.15 650.90 326.16 651.33 328.18 C 651.42 331.14 651.40 334.09 651.38 337.06 C 652.80 336.24 654.21 335.41 655.63 334.61 C 657.14 336.80 658.32 338.96 659.11 341.51 C 661.14 342.58 663.20 343.62 665.23 344.73 C 662.50 344.62 659.05 344.05 656.50 345.14 C 654.27 346.91 652.90 349.91 651.41 352.31 C 649.86 348.76 648.97 346.64 645.16 345.29 C 645.21 342.44 645.71 339.46 645.34 336.63 C 644.39 335.63 644.07 334.83 642.58 335.48 C 640.50 336.24 640.13 339.10 639.73 340.97 C 638.87 346.55 638.54 352.40 639.39 358.00 C 639.79 360.58 641.80 362.64 644.52 361.46 C 648.60 360.50 648.94 356.49 650.89 353.31 C 650.55 362.26 650.00 371.52 651.55 380.38 C 646.82 380.42 642.09 380.43 637.36 380.18 C 637.83 366.47 637.08 352.71 637.43 339.00 C 637.54 331.45 637.26 323.88 637.47 316.33 Z" fill="#b3ca5e" />
<path d="M 638.19 316.25 C 642.68 315.59 646.95 315.73 651.43 316.40 C 651.38 320.33 651.30 324.25 651.33 328.18 C 650.90 326.16 650.35 324.15 649.82 322.16 C 648.22 325.27 646.58 328.36 644.90 331.43 C 642.84 330.49 639.74 329.70 638.44 327.73 C 637.92 323.96 638.36 320.05 638.19 316.25 Z" fill="#afc64b" />
<path d="M 798.44 316.26 C 802.76 315.82 807.18 316.12 811.51 316.14 C 811.52 327.88 811.32 339.61 811.61 351.35 C 818.46 345.99 823.69 339.17 830.00 333.29 C 835.58 333.44 841.16 333.41 846.74 333.28 C 840.19 338.89 834.48 345.47 828.47 351.63 C 830.66 355.67 832.82 359.66 835.76 363.22 C 840.12 368.55 843.41 374.56 848.13 379.61 C 843.08 380.11 837.80 380.63 832.73 380.14 C 827.58 374.16 824.05 366.47 818.18 361.13 C 815.87 363.15 813.65 365.25 811.49 367.43 C 811.40 371.71 811.35 376.00 811.40 380.29 C 806.74 380.40 802.13 380.56 797.51 379.77 C 797.67 374.84 797.50 369.92 797.72 364.99 C 798.22 357.64 797.27 350.34 797.68 342.98 C 797.38 334.02 798.69 325.23 798.44 316.26 Z" fill="#afca54" />
<path d="M 801.14 317.16 C 804.06 316.74 806.86 316.89 809.78 317.01 C 809.88 320.59 810.21 324.36 809.64 327.90 C 809.51 329.82 807.42 330.48 806.13 331.55 C 803.52 327.06 801.50 322.41 801.14 317.16 Z" fill="#abc147" />
<path d="M 216.87 317.63 C 218.73 319.56 220.53 321.49 222.44 323.37 C 220.77 324.89 219.18 326.54 217.58 328.15 C 216.98 324.66 216.82 321.15 216.87 317.63 Z" fill="#8abe72" />
<path d="M 603.00 318.28 C 612.87 317.68 623.00 321.81 630.00 328.70 C 627.39 331.86 624.78 335.02 621.98 338.02 C 617.56 334.07 613.26 330.67 607.04 330.43 C 600.17 329.68 593.21 333.90 589.60 339.58 C 586.64 343.75 587.29 349.97 587.60 354.83 C 588.95 364.08 598.12 369.51 607.00 368.75 C 612.77 369.02 616.98 366.42 621.26 362.95 C 624.24 365.37 627.08 367.93 629.85 370.59 C 623.65 377.37 615.36 381.91 606.00 381.63 C 598.94 382.01 592.94 379.34 586.90 376.05 C 581.12 372.81 577.42 367.23 574.67 361.36 C 571.89 355.73 571.67 348.85 573.02 342.81 C 575.06 336.16 578.27 329.29 584.09 325.13 C 589.45 321.19 596.26 318.25 603.00 318.28 Z" fill="#adc753" />
<path d="M 504.65 319.64 C 504.84 331.42 504.35 343.25 505.18 355.00 C 505.29 359.14 504.80 363.30 504.66 367.45 L 504.53 368.58 C 504.46 365.79 504.25 363.01 504.03 360.23 C 500.48 360.45 497.26 360.24 493.78 359.63 C 493.77 360.82 493.80 362.02 493.82 363.21 C 495.35 363.62 496.88 364.03 498.41 364.46 C 500.09 367.07 501.43 368.64 504.36 369.94 C 504.11 371.84 503.86 373.75 503.61 375.65 C 502.42 375.21 501.22 374.78 500.02 374.34 C 497.43 376.09 494.77 377.79 492.32 379.73 C 492.54 367.88 492.37 356.01 492.30 344.16 L 491.05 344.85 C 488.05 341.62 485.89 338.40 484.48 334.20 C 485.38 332.60 486.30 331.02 487.21 329.44 C 493.16 330.08 498.38 333.99 504.16 335.90 C 504.21 333.97 504.37 331.98 504.10 330.07 C 502.31 327.30 500.12 324.60 497.98 322.09 C 496.66 320.49 494.19 320.61 492.28 320.26 C 496.01 318.97 500.69 319.94 504.65 319.64 Z" fill="#345b40" />
<path d="M 852.28 319.67 C 857.20 319.26 862.19 319.59 867.13 319.43 C 866.65 326.63 866.57 333.82 865.72 340.99 C 865.51 347.34 865.05 353.51 864.21 359.81 C 862.97 356.12 862.44 352.25 861.34 348.52 C 860.20 346.88 858.29 345.68 856.65 344.58 C 855.57 344.93 854.52 345.34 853.46 345.73 C 853.37 337.38 851.98 329.06 851.75 320.72 L 852.28 319.67 Z" fill="#aac34e" />
<path d="M 190.95 320.18 C 194.57 321.37 197.07 323.67 201.17 323.10 C 197.01 324.28 195.08 327.69 191.48 329.63 C 189.64 330.59 187.53 329.70 185.60 329.40 C 186.08 326.73 186.67 324.09 187.22 321.43 C 188.42 320.92 189.67 320.38 190.95 320.18 Z" fill="#add268" />
<path d="M 437.64 319.75 C 441.59 319.72 445.53 319.67 449.46 319.44 C 454.22 327.10 458.56 335.04 462.80 342.99 C 459.83 343.86 456.89 344.50 453.79 344.59 C 453.65 346.38 453.49 348.17 453.31 349.95 C 452.29 348.24 451.28 346.52 450.26 344.80 C 448.15 351.12 450.40 357.20 448.44 363.41 C 447.84 365.42 445.21 366.57 443.71 367.89 C 441.63 369.36 440.89 371.69 439.78 373.89 C 440.36 375.00 440.95 376.12 441.53 377.23 C 440.82 376.97 440.12 376.70 439.42 376.43 C 439.09 370.66 438.44 364.76 438.86 358.98 C 438.99 356.51 440.27 354.79 441.50 352.78 C 440.39 349.63 438.95 346.63 437.68 343.55 C 437.65 335.62 437.62 327.68 437.64 319.75 Z" fill="#32573f" />
<path d="M 497.98 322.09 C 500.12 324.60 502.31 327.30 504.10 330.07 C 504.37 331.98 504.21 333.97 504.16 335.90 C 498.38 333.99 493.16 330.08 487.21 329.44 C 488.95 326.40 490.66 323.36 492.28 320.26 C 494.19 320.61 496.66 320.49 497.98 322.09 Z" fill="#2a4f38" />
<path d="M 187.22 321.43 C 186.67 324.09 186.08 326.73 185.60 329.40 C 184.67 335.17 184.02 340.54 187.11 345.82 L 185.16 344.81 C 183.93 342.03 183.27 339.20 182.55 336.26 C 182.85 331.45 182.95 324.59 187.22 321.43 Z" fill="#5e823a" />
<path d="M 201.17 323.10 L 202.39 322.79 C 202.79 323.60 203.18 324.41 203.56 325.23 C 202.16 327.74 199.83 328.22 197.50 329.52 C 193.84 331.40 190.81 334.93 189.78 338.95 C 189.15 341.31 190.29 342.95 191.34 344.93 C 190.10 345.26 188.88 345.65 187.70 346.15 L 187.11 345.82 C 184.02 340.54 184.67 335.17 185.60 329.40 C 187.53 329.70 189.64 330.59 191.48 329.63 C 195.08 327.69 197.01 324.28 201.17 323.10 Z" fill="#b9dc7f" />
<path d="M 222.44 323.37 C 225.32 325.92 228.16 328.62 231.33 330.81 C 232.27 331.22 233.28 331.48 234.36 331.59 C 234.25 330.36 234.14 329.13 234.02 327.90 C 240.28 334.92 248.81 338.04 255.71 344.24 C 258.55 346.83 261.29 349.52 264.23 352.02 C 269.70 358.83 272.67 367.84 276.26 375.77 C 276.03 377.03 275.80 378.30 275.57 379.57 C 268.25 373.81 260.74 368.29 253.40 362.57 C 252.29 361.73 251.10 360.84 249.83 360.27 C 248.57 360.22 247.27 360.61 246.03 360.85 C 247.51 367.28 248.75 373.74 250.09 380.19 C 246.67 375.54 241.94 373.27 237.09 370.49 C 240.00 368.98 242.87 367.82 246.03 366.92 C 245.57 366.40 245.11 365.89 244.65 365.38 C 242.06 365.13 239.48 364.88 236.89 364.64 C 239.43 363.94 241.97 363.24 244.51 362.55 C 244.73 360.63 244.94 358.71 245.16 356.79 C 246.21 356.60 247.27 356.41 248.32 356.23 C 247.14 353.84 246.13 351.67 243.59 350.45 C 241.03 349.44 237.91 349.64 235.20 349.45 C 230.46 349.07 226.27 351.20 221.52 351.47 L 221.31 351.57 C 220.65 347.58 219.77 343.62 219.12 339.63 C 218.80 335.76 218.28 331.96 217.58 328.15 C 219.18 326.54 220.77 324.89 222.44 323.37 Z" fill="#72b070" />
<path d="M 202.31 329.12 C 203.60 330.93 204.57 332.91 205.44 334.96 C 203.84 335.36 201.83 335.49 200.42 336.42 C 197.42 338.83 195.61 342.05 194.22 345.58 C 192.70 343.10 190.94 340.46 192.54 337.54 C 194.99 334.08 198.82 331.43 202.31 329.12 Z" fill="#8dc378" />
<path d="M 207.18 331.01 C 207.92 332.31 208.68 332.86 210.04 333.50 C 209.71 336.30 209.38 339.19 209.57 342.02 C 209.57 342.99 210.10 343.81 211.17 344.48 C 211.94 340.53 212.22 336.53 212.32 332.51 C 212.41 334.20 212.51 335.89 212.60 337.59 C 212.54 341.02 212.16 343.93 214.17 346.93 C 213.40 346.52 212.63 346.11 211.85 345.71 C 212.40 347.86 212.94 350.01 213.44 352.17 C 210.74 350.09 208.07 347.25 204.88 345.99 C 201.33 345.52 197.80 346.57 194.22 345.58 C 195.61 342.05 197.42 338.83 200.42 336.42 C 201.83 335.49 203.84 335.36 205.44 334.96 L 206.93 334.63 C 207.05 333.44 207.13 332.23 207.18 331.01 Z" fill="#68a665" />
<path d="M 662.97 332.49 C 667.65 332.53 673.78 332.26 677.63 335.36 C 682.24 338.72 683.81 344.62 684.43 350.00 C 684.83 359.02 684.55 368.09 684.43 377.11 C 683.42 373.21 681.86 369.54 680.32 365.82 C 678.99 365.38 677.67 364.95 676.34 364.52 C 676.09 363.08 675.83 361.64 675.58 360.20 C 674.81 361.88 674.03 363.55 673.24 365.22 C 672.31 360.83 672.04 356.34 671.19 351.94 C 670.24 348.55 668.35 346.32 665.23 344.73 C 663.20 343.62 661.14 342.58 659.11 341.51 C 658.32 338.96 657.14 336.80 655.63 334.61 C 657.98 333.27 660.21 332.36 662.97 332.49 Z" fill="#acc852" />
<path d="M 210.04 333.50 L 212.32 332.51 C 212.22 336.53 211.94 340.53 211.17 344.48 C 210.10 343.81 209.57 342.99 209.57 342.02 C 209.38 339.19 209.71 336.30 210.04 333.50 Z" fill="#294c1d" />
<path d="M 530.36 333.23 C 530.30 337.30 530.30 341.38 530.17 345.45 C 529.30 348.77 528.67 352.05 528.30 355.46 C 526.39 356.02 524.17 356.37 522.47 357.42 C 520.95 358.73 519.68 360.35 518.33 361.83 C 517.97 356.51 518.28 351.20 517.85 345.89 C 521.40 344.08 524.70 342.31 527.23 339.13 C 524.45 336.24 520.88 335.68 517.51 333.88 L 516.86 333.43 C 521.36 333.46 525.86 333.45 530.36 333.23 Z" fill="#365b43" />
<path d="M 563.56 333.37 C 563.64 348.92 563.42 364.51 563.76 380.06 C 560.37 378.33 557.15 378.87 553.46 378.41 C 552.63 377.64 551.84 376.84 551.02 376.06 C 547.43 377.53 544.64 379.79 540.82 380.58 C 534.63 382.07 527.58 380.41 522.71 376.29 C 518.62 372.11 516.26 365.86 516.73 360.00 C 516.97 351.14 516.64 342.29 516.86 333.43 L 517.51 333.88 C 517.39 337.91 517.39 341.88 517.85 345.89 C 518.28 351.20 517.97 356.51 518.33 361.83 C 519.68 360.35 520.95 358.73 522.47 357.42 C 524.17 356.37 526.39 356.02 528.30 355.46 C 528.67 352.05 529.30 348.77 530.17 345.45 C 530.32 349.98 530.39 354.50 530.47 359.03 C 530.54 361.56 530.73 364.49 532.53 366.45 C 536.52 370.58 544.17 370.25 547.85 365.89 C 550.74 362.14 550.42 357.47 550.41 353.00 C 550.21 346.39 550.78 339.99 549.65 333.43 C 554.29 333.29 558.91 333.37 563.56 333.37 Z" fill="#2f4f3c" />
<path d="M 712.99 332.80 C 718.48 332.22 725.04 332.54 729.70 335.84 C 723.47 337.11 718.13 340.31 712.12 342.16 C 709.96 342.87 707.99 343.73 706.62 345.63 C 705.01 347.64 705.13 350.20 704.80 352.64 L 705.90 352.64 C 710.66 352.61 715.43 352.54 720.19 352.68 C 719.36 354.60 718.64 356.72 717.44 358.44 C 715.12 359.92 712.26 360.64 709.66 361.45 C 708.42 361.52 707.17 361.59 705.93 361.65 C 707.01 364.02 707.85 366.35 709.97 368.03 C 712.43 370.18 716.25 370.00 719.35 370.31 L 720.21 370.81 C 716.85 371.02 713.16 370.96 709.95 372.02 C 707.51 373.17 705.64 375.66 703.67 377.46 C 696.89 373.55 691.84 365.93 691.90 357.96 C 691.99 351.35 694.22 344.68 699.02 339.99 C 702.91 336.34 707.55 333.32 712.99 332.80 Z" fill="#aac44d" />
<path d="M 780.05 333.91 C 784.94 336.09 789.66 339.13 791.17 344.60 C 787.29 346.08 784.09 347.93 780.82 350.47 C 779.00 348.10 777.52 344.29 774.00 344.38 C 770.96 344.15 767.68 344.01 764.70 344.78 C 760.88 346.49 759.83 350.26 759.01 354.02 C 757.95 358.22 759.31 362.82 761.70 366.31 C 764.38 369.76 770.18 370.02 774.10 369.26 C 777.42 368.41 778.82 365.89 780.79 363.40 C 783.64 364.84 786.64 366.04 789.36 367.69 C 790.60 368.27 791.40 370.34 790.44 371.42 C 787.89 374.87 783.58 378.13 779.62 379.76 C 771.51 382.26 761.52 381.66 754.57 376.41 C 749.81 372.14 745.28 365.64 745.26 359.02 C 744.97 353.97 745.03 349.26 747.88 344.88 C 751.06 340.00 756.05 335.03 761.93 333.75 C 767.74 332.14 774.31 331.95 780.05 333.91 Z" fill="#aec754" />
<path d="M 484.48 334.20 C 485.89 338.40 488.05 341.62 491.05 344.85 C 490.01 346.69 489.04 348.57 487.95 350.39 C 486.75 348.60 485.62 346.54 484.02 345.07 C 482.55 344.34 480.84 344.02 479.26 343.58 C 481.00 340.45 482.77 337.34 484.48 334.20 Z" fill="#213f2f" />
<path d="M 517.51 333.88 C 520.88 335.68 524.45 336.24 527.23 339.13 C 524.70 342.31 521.40 344.08 517.85 345.89 C 517.39 341.88 517.39 337.91 517.51 333.88 Z" fill="#294734" />
<path d="M 645.34 336.63 C 645.71 339.46 645.21 342.44 645.16 345.29 C 648.97 346.64 649.86 348.76 651.41 352.31 L 650.89 353.31 C 648.94 356.49 648.60 360.50 644.52 361.46 C 641.80 362.64 639.79 360.58 639.39 358.00 C 638.54 352.40 638.87 346.55 639.73 340.97 C 640.13 339.10 640.50 336.24 642.58 335.48 C 644.07 334.83 644.39 335.63 645.34 336.63 Z" fill="#acc649" />
<path d="M 729.70 335.84 C 731.95 337.51 734.80 339.31 736.21 341.78 C 739.21 347.61 740.69 353.90 740.47 360.46 C 735.84 360.26 731.51 360.30 727.33 357.98 C 728.02 355.75 728.94 353.33 729.00 350.98 C 728.95 349.45 727.09 348.21 726.18 347.12 C 722.76 343.23 717.80 342.83 712.97 343.66 C 708.65 344.84 706.76 348.55 705.90 352.64 L 704.80 352.64 C 705.13 350.20 705.01 347.64 706.62 345.63 C 707.99 343.73 709.96 342.87 712.12 342.16 C 718.13 340.31 723.47 337.11 729.70 335.84 Z" fill="#b1cd5b" />
<path d="M 212.60 337.59 C 213.47 339.69 214.44 341.74 215.35 343.83 C 216.11 343.86 216.87 343.89 217.63 343.92 C 218.13 342.49 218.65 341.07 219.12 339.63 C 219.77 343.62 220.65 347.58 221.31 351.57 C 218.59 353.41 215.84 355.09 212.86 356.48 C 209.08 354.78 205.92 352.27 202.63 349.80 C 203.42 349.39 204.21 348.99 205.01 348.59 C 208.32 351.10 210.51 353.69 215.09 353.19 C 214.96 351.10 215.30 348.75 214.17 346.93 C 212.16 343.93 212.54 341.02 212.60 337.59 Z" fill="#b8d97a" />
<path d="M 332.70 341.47 C 335.95 341.11 339.48 340.74 342.69 341.42 C 344.62 342.87 346.14 344.99 347.68 346.84 C 347.01 347.26 346.34 347.67 345.67 348.08 C 342.00 350.05 338.46 352.06 334.35 353.00 C 333.14 351.00 331.93 349.00 330.68 347.03 C 331.35 345.18 331.99 343.31 332.70 341.47 Z" fill="#a0c965" />
<path d="M 462.80 342.99 C 463.48 344.23 464.20 345.44 464.94 346.65 C 464.39 350.36 462.47 353.27 460.41 356.29 C 459.48 356.51 458.56 356.73 457.63 356.96 C 456.19 354.62 454.72 352.31 453.31 349.95 C 453.49 348.17 453.65 346.38 453.79 344.59 C 456.89 344.50 459.83 343.86 462.80 342.99 Z" fill="#396648" />
<path d="M 330.10 343.90 C 330.33 344.94 330.52 345.98 330.68 347.03 C 329.96 350.54 328.28 353.99 330.76 357.21 C 332.60 360.14 335.38 360.84 338.45 361.92 C 334.38 362.93 330.01 361.72 328.50 357.51 C 326.50 352.62 328.06 348.40 330.10 343.90 Z" fill="#598845" />
<path d="M 437.68 343.55 C 438.95 346.63 440.39 349.63 441.50 352.78 C 440.27 354.79 438.99 356.51 438.86 358.98 C 438.44 364.76 439.09 370.66 439.42 376.43 C 440.12 376.70 440.82 376.97 441.53 377.23 C 440.95 376.12 440.36 375.00 439.78 373.89 C 440.89 371.69 441.63 369.36 443.71 367.89 C 445.21 366.57 447.84 365.42 448.44 363.41 C 450.40 357.20 448.15 351.12 450.26 344.80 C 449.74 351.56 449.34 358.28 449.90 365.06 C 450.37 370.18 450.06 375.28 450.35 380.41 C 446.09 380.31 441.83 380.27 437.57 380.31 C 437.84 368.06 437.51 355.80 437.68 343.55 Z" fill="#284234" />
<path d="M 479.26 343.58 C 480.84 344.02 482.55 344.34 484.02 345.07 C 485.62 346.54 486.75 348.60 487.95 350.39 C 484.68 355.48 482.29 361.01 479.21 366.21 C 477.55 369.05 476.09 371.98 474.64 374.93 C 472.28 374.75 469.92 374.55 467.56 374.37 C 464.28 368.55 461.05 362.69 457.63 356.96 C 458.56 356.73 459.48 356.51 460.41 356.29 C 462.47 353.27 464.39 350.36 464.94 346.65 C 467.05 350.13 469.26 353.56 471.54 356.94 C 474.27 352.58 476.71 348.04 479.26 343.58 Z" fill="#305541" />
<path d="M 712.97 343.66 C 717.80 342.83 722.76 343.23 726.18 347.12 C 726.71 349.02 727.19 350.92 727.69 352.82 C 725.19 352.78 722.69 352.73 720.19 352.68 C 715.43 352.54 710.66 352.61 705.90 352.64 C 706.76 348.55 708.65 344.84 712.97 343.66 Z" fill="#f8faf0" />
<path d="M 856.65 344.58 C 858.29 345.68 860.20 346.88 861.34 348.52 C 862.44 352.25 862.97 356.12 864.21 359.81 C 860.99 360.23 857.87 360.09 854.65 359.71 C 854.46 355.03 853.71 350.40 853.46 345.73 C 854.52 345.34 855.57 344.93 856.65 344.58 Z" fill="#9db73d" />
<path d="M 191.34 344.93 C 192.46 345.93 193.58 347.61 195.07 347.97 C 198.47 348.30 201.61 347.72 205.01 348.59 C 204.21 348.99 203.42 349.39 202.63 349.80 C 198.07 351.88 195.41 356.21 191.24 359.33 L 190.16 358.31 C 187.53 355.61 185.12 352.85 183.27 349.55 C 184.73 348.39 186.18 347.23 187.70 346.15 C 188.88 345.65 190.10 345.26 191.34 344.93 Z" fill="#a9ca60" />
<path d="M 352.83 346.23 C 354.46 347.18 356.15 348.58 358.00 348.99 C 360.83 349.49 363.81 349.39 366.67 349.46 C 365.16 353.78 361.89 356.16 358.13 358.42 C 355.37 359.15 352.63 359.87 349.81 360.34 C 347.85 360.39 345.88 360.46 343.91 360.55 C 343.23 359.87 342.58 359.16 341.95 358.44 C 345.50 356.38 349.24 355.13 353.18 354.04 C 351.02 350.92 348.34 351.64 345.06 351.85 C 347.23 351.36 349.45 351.03 351.65 350.68 C 350.13 349.79 348.62 348.88 347.09 348.00 C 349.02 347.44 350.90 346.76 352.83 346.23 Z" fill="#66a762" />
<path d="M 330.68 347.03 C 331.93 349.00 333.14 351.00 334.35 353.00 C 338.46 352.06 342.00 350.05 345.67 348.08 L 347.09 348.00 C 348.62 348.88 350.13 349.79 351.65 350.68 C 349.45 351.03 347.23 351.36 345.06 351.85 C 342.97 352.53 341.68 354.42 340.23 355.94 C 340.80 356.78 341.37 357.61 341.95 358.44 C 342.58 359.16 343.23 359.87 343.91 360.55 C 342.08 360.93 340.26 361.48 338.45 361.92 C 335.38 360.84 332.60 360.14 330.76 357.21 C 328.28 353.99 329.96 350.54 330.68 347.03 Z" fill="#7db56d" />
<path d="M 726.18 347.12 C 727.09 348.21 728.95 349.45 729.00 350.98 C 728.94 353.33 728.02 355.75 727.33 357.98 C 731.51 360.30 735.84 360.26 740.47 360.46 C 733.30 361.27 726.18 360.16 719.03 361.01 C 715.92 361.33 712.79 361.39 709.66 361.45 C 712.26 360.64 715.12 359.92 717.44 358.44 C 718.64 356.72 719.36 354.60 720.19 352.68 C 722.69 352.73 725.19 352.78 727.69 352.82 C 727.19 350.92 726.71 349.02 726.18 347.12 Z" fill="#bad36f" />
<path d="M 235.20 349.45 C 237.91 349.64 241.03 349.44 243.59 350.45 C 246.13 351.67 247.14 353.84 248.32 356.23 C 247.27 356.41 246.21 356.60 245.16 356.79 C 244.94 358.71 244.73 360.63 244.51 362.55 C 241.97 363.24 239.43 363.94 236.89 364.64 C 239.48 364.88 242.06 365.13 244.65 365.38 C 245.11 365.89 245.57 366.40 246.03 366.92 C 242.87 367.82 240.00 368.98 237.09 370.49 C 241.94 373.27 246.67 375.54 250.09 380.19 C 252.27 385.91 252.67 391.99 254.61 397.77 C 255.97 401.92 257.19 406.14 258.69 410.25 C 256.64 411.06 254.23 412.33 251.99 412.14 C 249.84 411.87 247.66 410.83 245.61 410.09 C 245.47 412.16 245.41 414.26 245.34 416.33 C 246.15 416.75 246.96 417.17 247.77 417.59 C 246.58 418.40 245.39 419.22 244.20 420.03 C 239.49 416.02 236.24 411.04 233.36 405.63 C 231.17 401.50 229.95 397.09 228.00 392.81 C 225.70 395.66 227.36 398.23 228.25 401.22 C 226.24 401.71 224.23 402.33 222.21 402.76 C 221.12 402.49 220.03 402.24 218.94 402.00 C 217.96 404.29 217.34 406.88 216.00 408.99 C 212.89 411.27 209.65 412.23 207.84 415.98 C 208.55 409.21 208.37 402.33 208.51 395.53 C 208.72 388.00 208.01 380.54 207.83 373.04 C 211.48 371.99 215.82 372.74 219.40 371.43 C 221.16 370.79 221.92 369.39 222.94 367.93 C 223.27 362.46 221.77 357.01 221.52 351.47 C 226.27 351.20 230.46 349.07 235.20 349.45 Z" fill="#6baa6c" />
<path d="M 202.63 349.80 C 205.92 352.27 209.08 354.78 212.86 356.48 C 208.55 358.20 209.04 362.53 206.82 365.94 C 205.96 366.59 204.90 367.01 203.94 367.51 C 199.29 365.45 194.92 362.88 191.24 359.33 C 195.41 356.21 198.07 351.88 202.63 349.80 Z" fill="#b3d16a" />
<path d="M 221.31 351.57 L 221.52 351.47 C 221.77 357.01 223.27 362.46 222.94 367.93 C 219.96 368.19 217.02 369.42 214.05 369.24 C 210.64 369.05 207.22 368.48 203.94 367.51 C 204.90 367.01 205.96 366.59 206.82 365.94 C 209.04 362.53 208.55 358.20 212.86 356.48 C 215.84 355.09 218.59 353.41 221.31 351.57 Z" fill="#a2c867" />
<path d="M 345.06 351.85 C 348.34 351.64 351.02 350.92 353.18 354.04 C 349.24 355.13 345.50 356.38 341.95 358.44 C 341.37 357.61 340.80 356.78 340.23 355.94 C 341.68 354.42 342.97 352.53 345.06 351.85 Z" fill="#2a6633" />
<path d="M 671.19 351.94 C 672.04 356.34 672.31 360.83 673.24 365.22 C 674.03 363.55 674.81 361.88 675.58 360.20 C 675.83 361.64 676.09 363.08 676.34 364.52 C 677.67 364.95 678.99 365.38 680.32 365.82 C 681.86 369.54 683.42 373.21 684.43 377.11 C 684.48 378.17 684.53 379.22 684.58 380.27 C 680.31 380.22 676.05 380.22 671.78 380.27 C 671.23 370.84 671.88 361.36 671.19 351.94 Z" fill="#a1ba44" />
<path d="M 190.16 358.31 L 191.24 359.33 C 194.92 362.88 199.29 365.45 203.94 367.51 C 207.22 368.48 210.64 369.05 214.05 369.24 C 217.02 369.42 219.96 368.19 222.94 367.93 C 221.92 369.39 221.16 370.79 219.40 371.43 C 215.82 372.74 211.48 371.99 207.83 373.04 C 208.01 380.54 208.72 388.00 208.51 395.53 C 203.48 387.62 199.37 379.07 195.40 370.59 C 193.48 366.37 190.91 362.99 190.16 358.31 Z" fill="#33663a" />
<path d="M 493.78 359.63 C 497.26 360.24 500.48 360.45 504.03 360.23 C 504.25 363.01 504.46 365.79 504.53 368.58 L 504.36 369.94 C 501.43 368.64 500.09 367.07 498.41 364.46 C 496.88 364.03 495.35 363.62 493.82 363.21 C 493.80 362.02 493.77 360.82 493.78 359.63 Z" fill="#45724f" />
<path d="M 249.83 360.27 C 251.10 360.84 252.29 361.73 253.40 362.57 C 260.74 368.29 268.25 373.81 275.57 379.57 C 275.80 378.30 276.03 377.03 276.26 375.77 C 278.06 380.64 279.18 385.70 281.30 390.48 C 283.82 396.31 285.38 402.42 287.52 408.38 C 289.43 413.27 291.05 418.17 292.51 423.21 C 294.42 429.94 298.79 435.16 302.98 440.65 C 300.36 439.88 297.79 439.12 295.40 437.75 C 289.64 434.47 283.39 432.38 277.50 429.33 C 273.79 427.40 269.32 425.63 266.47 422.54 C 263.09 418.99 260.50 414.79 258.69 410.25 C 257.19 406.14 255.97 401.92 254.61 397.77 C 252.67 391.99 252.27 385.91 250.09 380.19 C 248.75 373.74 247.51 367.28 246.03 360.85 C 247.27 360.61 248.57 360.22 249.83 360.27 Z" fill="#86ba57" />
<path d="M 351.36 362.69 C 353.79 366.94 355.04 371.12 355.76 375.95 C 354.50 375.90 353.25 375.86 351.99 375.82 C 349.15 371.44 350.11 367.40 351.36 362.69 Z" fill="#89b556" />
<path d="M 730.17 366.25 C 732.76 368.88 735.49 371.38 738.05 374.05 C 735.24 375.93 732.31 377.97 729.21 379.32 C 724.57 381.28 719.48 381.82 714.51 381.10 C 717.29 380.32 719.90 379.14 722.46 377.83 C 721.84 376.81 721.22 375.79 720.59 374.77 C 721.20 373.94 721.81 373.12 722.41 372.30 C 721.68 371.79 720.95 371.30 720.21 370.81 L 719.35 370.31 C 723.97 369.89 726.45 368.84 730.17 366.25 Z" fill="#aac354" />
<path d="M 855.40 366.37 C 860.87 363.15 868.23 368.41 867.54 374.57 C 866.71 378.55 862.93 381.20 858.98 381.31 C 855.15 380.73 851.82 377.79 850.79 374.07 C 849.92 370.94 853.05 367.94 855.40 366.37 Z" fill="#abc457" />
<path d="M 504.53 368.58 L 504.66 367.45 C 504.75 371.74 505.17 376.00 505.42 380.28 C 501.03 380.35 496.64 380.33 492.25 380.28 L 492.32 379.73 C 494.77 377.79 497.43 376.09 500.02 374.34 C 501.22 374.78 502.42 375.21 503.61 375.65 C 503.86 373.75 504.11 371.84 504.36 369.94 L 504.53 368.58 Z" fill="#26372f" />
<path d="M 720.21 370.81 C 720.95 371.30 721.68 371.79 722.41 372.30 C 721.81 373.12 721.20 373.94 720.59 374.77 C 721.22 375.79 721.84 376.81 722.46 377.83 C 719.90 379.14 717.29 380.32 714.51 381.10 C 710.76 380.53 707.07 379.11 703.67 377.46 C 705.64 375.66 707.51 373.17 709.95 372.02 C 713.16 370.96 716.85 371.02 720.21 370.81 Z" fill="#a1ba46" />
<path d="M 551.02 376.06 C 551.84 376.84 552.63 377.64 553.46 378.41 C 557.15 378.87 560.37 378.33 563.76 380.06 C 559.63 380.43 555.57 380.22 551.44 380.21 C 551.31 378.82 551.17 377.44 551.02 376.06 Z" fill="#1f3227" />
<path d="M 359.02 379.02 C 360.96 378.88 362.63 378.29 364.14 379.90 C 367.61 383.58 368.49 388.93 368.25 393.81 L 367.60 393.40 C 365.24 391.84 362.92 389.81 360.31 388.73 C 358.48 388.29 356.44 388.57 354.56 388.51 C 351.03 388.54 347.49 387.57 343.98 387.79 C 340.21 388.38 336.71 391.27 333.02 392.21 C 330.35 392.84 327.57 392.90 324.82 393.19 C 333.46 389.78 336.97 381.46 345.73 378.75 C 350.54 377.24 354.28 380.66 359.02 379.02 Z" fill="#5c9e60" />
<path d="M 343.98 387.79 C 347.49 387.57 351.03 388.54 354.56 388.51 C 356.44 388.57 358.48 388.29 360.31 388.73 C 362.92 389.81 365.24 391.84 367.60 393.40 C 364.60 395.70 361.82 399.21 358.01 399.95 C 350.82 401.59 342.38 399.38 335.12 398.62 C 330.71 398.05 326.29 397.51 321.86 397.14 C 321.28 396.39 320.71 395.63 320.13 394.88 C 321.69 394.31 323.25 393.74 324.82 393.19 C 327.57 392.90 330.35 392.84 333.02 392.21 C 336.71 391.27 340.21 388.38 343.98 387.79 Z" fill="#35653e" />
<path d="M 291.74 392.24 C 299.97 394.04 307.89 398.44 314.99 402.87 C 312.82 404.96 310.65 407.04 308.48 409.12 C 312.20 414.35 318.16 416.44 322.11 421.39 C 312.95 418.84 304.22 414.39 295.90 409.84 C 298.52 407.61 301.18 405.42 303.85 403.25 C 299.51 399.52 294.64 396.95 291.74 392.24 Z" fill="#9fbe4b" />
<path d="M 228.00 392.81 C 229.95 397.09 231.17 401.50 233.36 405.63 C 236.24 411.04 239.49 416.02 244.20 420.03 C 252.72 427.63 262.60 431.26 272.61 436.39 C 278.29 439.34 284.32 441.34 290.21 443.79 C 299.19 447.98 308.73 450.98 318.12 454.12 C 317.85 454.96 317.58 455.80 317.30 456.64 C 309.33 455.57 301.90 452.77 294.65 449.39 C 284.86 445.30 275.33 440.63 265.61 436.37 C 259.74 433.86 254.14 430.89 248.63 427.67 C 239.05 421.15 232.63 411.84 228.25 401.22 C 227.36 398.23 225.70 395.66 228.00 392.81 Z" fill="#2c6938" />
<path d="M 367.60 393.40 L 368.25 393.81 C 366.49 396.77 363.83 399.42 362.55 402.60 C 362.30 404.57 364.07 406.82 364.87 408.54 C 364.43 409.05 364.00 409.56 363.58 410.08 C 361.07 411.24 358.55 412.98 355.84 413.52 C 348.69 414.27 341.80 414.26 335.53 410.28 L 335.92 409.31 C 337.26 408.89 338.63 408.56 340.02 408.36 C 345.73 409.96 351.25 410.65 356.77 407.95 C 356.75 407.00 356.73 406.05 356.71 405.10 C 351.33 403.31 346.02 403.65 340.49 403.46 C 336.92 402.02 333.38 400.51 329.75 399.22 C 331.54 399.00 333.32 398.78 335.12 398.62 C 342.38 399.38 350.82 401.59 358.01 399.95 C 361.82 399.21 364.60 395.70 367.60 393.40 Z" fill="#7ab468" />
<path d="M 321.86 397.14 C 326.29 397.51 330.71 398.05 335.12 398.62 C 333.32 398.78 331.54 399.00 329.75 399.22 C 333.38 400.51 336.92 402.02 340.49 403.46 C 340.33 405.09 340.18 406.73 340.02 408.36 C 338.63 408.56 337.26 408.89 335.92 409.31 C 335.18 409.54 334.44 409.77 333.70 410.00 C 329.26 406.18 325.40 401.79 321.86 397.14 Z" fill="#6cae5d" />
<path d="M 228.25 401.22 C 232.63 411.84 239.05 421.15 248.63 427.67 C 248.47 430.60 248.63 432.06 250.76 434.23 C 256.69 440.55 263.75 446.01 269.40 452.61 C 274.63 458.70 280.20 464.51 286.42 469.60 C 292.18 474.21 297.21 479.16 299.39 486.44 C 297.46 490.97 294.35 494.44 291.63 498.45 C 287.84 505.53 284.26 512.72 280.06 519.58 C 274.84 519.25 269.67 518.42 264.64 516.98 C 267.69 509.90 270.49 502.76 273.90 495.84 C 275.78 492.11 277.03 488.44 276.12 484.20 C 275.07 477.13 270.76 472.81 266.43 467.57 C 259.65 459.70 255.09 450.53 248.54 442.48 C 244.74 437.81 241.76 432.63 238.21 427.78 C 233.69 421.69 229.30 415.50 225.01 409.25 C 224.06 407.09 223.23 404.89 222.21 402.76 C 224.23 402.33 226.24 401.71 228.25 401.22 Z" fill="#79b369" />
<path d="M 218.94 402.00 C 220.03 402.24 221.12 402.49 222.21 402.76 C 223.23 404.89 224.06 407.09 225.01 409.25 C 223.90 407.79 222.71 406.39 221.47 405.04 C 220.10 406.27 218.68 407.27 218.19 409.14 C 216.82 414.01 216.57 419.15 215.33 424.07 C 214.19 426.37 213.31 428.04 210.74 428.84 C 210.64 430.03 210.53 431.22 210.42 432.40 C 208.63 430.61 207.07 428.75 205.61 426.68 C 206.39 423.12 207.13 419.55 207.84 415.98 C 209.65 412.23 212.89 411.27 216.00 408.99 C 217.34 406.88 217.96 404.29 218.94 402.00 Z" fill="#83b666" />
<path d="M 356.71 405.10 C 356.73 406.05 356.75 407.00 356.77 407.95 C 351.25 410.65 345.73 409.96 340.02 408.36 C 340.18 406.73 340.33 405.09 340.49 403.46 C 346.02 403.65 351.33 403.31 356.71 405.10 Z" fill="#a3c961" />
<path d="M 221.47 405.04 C 222.71 406.39 223.90 407.79 225.01 409.25 C 229.30 415.50 233.69 421.69 238.21 427.78 C 241.76 432.63 244.74 437.81 248.54 442.48 C 255.09 450.53 259.65 459.70 266.43 467.57 C 270.76 472.81 275.07 477.13 276.12 484.20 C 277.03 488.44 275.78 492.11 273.90 495.84 C 270.49 502.76 267.69 509.90 264.64 516.98 C 259.93 515.61 255.48 514.75 251.00 512.97 C 245.90 511.00 241.47 508.09 236.47 505.81 C 221.96 496.94 209.04 486.06 199.48 471.87 C 202.26 465.73 205.03 459.68 207.35 453.35 C 211.50 444.16 212.84 434.14 215.33 424.07 C 216.57 419.15 216.82 414.01 218.19 409.14 C 218.68 407.27 220.10 406.27 221.47 405.04 Z" fill="#a9ca62" />
<path d="M 364.87 408.54 C 367.01 408.24 368.77 408.66 370.73 409.47 C 368.86 414.42 366.94 419.36 365.10 424.32 C 362.48 421.56 359.92 418.76 357.43 415.87 C 360.01 414.47 361.83 412.40 363.58 410.08 C 364.00 409.56 364.43 409.05 364.87 408.54 Z" fill="#90c16f" />
<path d="M 335.92 409.31 L 335.53 410.28 L 335.23 411.09 C 337.68 413.19 340.30 415.42 343.25 416.77 C 346.72 418.31 350.39 417.85 353.97 417.00 C 355.31 417.72 356.65 418.45 357.99 419.19 C 355.63 420.08 353.40 421.02 350.85 421.11 C 344.43 419.74 338.47 421.04 332.23 422.49 C 332.40 418.29 333.05 414.16 333.70 410.00 C 334.44 409.77 335.18 409.54 335.92 409.31 Z" fill="#67a762" />
<path d="M 245.61 410.09 C 247.66 410.83 249.84 411.87 251.99 412.14 C 254.23 412.33 256.64 411.06 258.69 410.25 C 260.50 414.79 263.09 418.99 266.47 422.54 C 269.32 425.63 273.79 427.40 277.50 429.33 C 283.39 432.38 289.64 434.47 295.40 437.75 C 297.79 439.12 300.36 439.88 302.98 440.65 C 309.17 443.59 315.40 447.22 322.01 449.07 C 331.39 450.44 341.01 449.48 349.08 444.17 C 350.23 443.94 351.37 443.75 352.52 443.56 C 353.71 445.67 354.92 447.76 356.15 449.85 C 350.81 453.91 343.63 455.75 337.00 455.83 C 330.58 455.92 324.36 455.77 318.12 454.12 C 308.73 450.98 299.19 447.98 290.21 443.79 C 284.32 441.34 278.29 439.34 272.61 436.39 C 262.60 431.26 252.72 427.63 244.20 420.03 C 245.39 419.22 246.58 418.40 247.77 417.59 C 246.96 417.17 246.15 416.75 245.34 416.33 C 245.41 414.26 245.47 412.16 245.61 410.09 Z" fill="#75b06e" />
<path d="M 335.53 410.28 C 341.80 414.26 348.69 414.27 355.84 413.52 C 358.55 412.98 361.07 411.24 363.58 410.08 C 361.83 412.40 360.01 414.47 357.43 415.87 C 356.29 416.29 355.13 416.66 353.97 417.00 C 350.39 417.85 346.72 418.31 343.25 416.77 C 340.30 415.42 337.68 413.19 335.23 411.09 L 335.53 410.28 Z" fill="#285d2d" />
<path d="M 357.43 415.87 C 359.92 418.76 362.48 421.56 365.10 424.32 C 361.80 433.35 362.64 441.95 356.15 449.85 C 354.92 447.76 353.71 445.67 352.52 443.56 C 351.37 443.75 350.23 443.94 349.08 444.17 C 353.51 439.94 357.80 433.24 356.21 426.87 C 355.72 423.84 353.14 422.68 350.85 421.11 C 353.40 421.02 355.63 420.08 357.99 419.19 C 356.65 418.45 355.31 417.72 353.97 417.00 C 355.13 416.66 356.29 416.29 357.43 415.87 Z" fill="#80b669" />
<path d="M 215.33 424.07 C 212.84 434.14 211.50 444.16 207.35 453.35 C 205.03 459.68 202.26 465.73 199.48 471.87 C 196.83 468.11 194.37 464.26 192.21 460.19 C 198.37 449.67 203.40 438.76 205.61 426.68 C 207.07 428.75 208.63 430.61 210.42 432.40 C 210.53 431.22 210.64 430.03 210.74 428.84 C 213.31 428.04 214.19 426.37 215.33 424.07 Z" fill="#8ebc64" />
<path d="M 178.17 425.21 C 173.39 429.13 168.29 432.60 163.68 436.72 C 165.85 438.82 168.01 440.93 170.15 443.07 C 165.22 444.90 160.42 446.92 155.37 448.40 C 151.29 449.65 147.18 450.84 143.04 451.87 C 147.17 448.37 151.88 445.62 155.97 442.10 C 154.92 439.29 152.04 437.11 149.96 434.99 C 151.71 434.25 153.45 433.50 155.20 432.79 C 162.69 429.85 170.53 427.75 178.17 425.21 Z" fill="#acca5a" />
<path d="M 248.63 427.67 C 254.14 430.89 259.74 433.86 265.61 436.37 C 275.33 440.63 284.86 445.30 294.65 449.39 C 301.90 452.77 309.33 455.57 317.30 456.64 C 316.08 460.65 313.83 464.01 311.96 467.69 C 310.62 470.72 310.10 473.86 309.30 477.04 C 308.30 481.08 306.60 484.86 305.51 488.88 C 303.48 488.07 301.46 487.19 299.39 486.44 C 297.21 479.16 292.18 474.21 286.42 469.60 C 280.20 464.51 274.63 458.70 269.40 452.61 C 263.75 446.01 256.69 440.55 250.76 434.23 C 248.63 432.06 248.47 430.60 248.63 427.67 Z" fill="#519c66" />
<path d="M 190.38 462.90 C 183.91 468.87 176.67 474.00 170.00 479.76 C 172.32 481.65 174.68 483.48 177.10 485.24 C 176.22 486.17 175.32 487.10 174.42 488.02 C 169.85 492.32 165.37 496.73 160.74 500.98 C 157.45 498.31 154.31 495.47 151.17 492.63 C 154.54 490.12 158.04 487.80 161.29 485.14 C 158.93 483.01 156.53 480.94 154.10 478.88 C 157.09 477.42 160.15 476.03 163.08 474.44 L 162.15 472.05 C 162.69 472.71 163.23 473.37 163.77 474.02 C 172.68 470.49 181.24 465.80 190.38 462.90 Z" fill="#a9c758" />
<path d="M 311.96 467.69 C 311.38 474.98 311.18 482.96 309.01 489.98 C 307.39 495.45 305.95 500.94 303.82 506.24 C 302.29 509.80 301.00 515.82 296.99 517.27 L 296.31 516.60 C 299.96 507.55 303.00 498.32 305.51 488.88 C 306.60 484.86 308.30 481.08 309.30 477.04 C 310.10 473.86 310.62 470.72 311.96 467.69 Z" fill="#295a32" />
<path d="M 299.39 486.44 C 301.46 487.19 303.48 488.07 305.51 488.88 C 303.00 498.32 299.96 507.55 296.31 516.60 L 296.99 517.27 C 291.70 519.19 285.66 519.52 280.06 519.58 C 284.26 512.72 287.84 505.53 291.63 498.45 C 294.35 494.44 297.46 490.97 299.39 486.44 Z" fill="#5eaa6f" />
</svg>